<?xml version="1.0" encoding="UTF-8"?>
<svg version="1.1" viewBox="0 0 1076 940" width="1280" height="1280" xmlns="http://www.w3.org/2000/svg">
<path transform="translate(484)" d="m0 0h24l4 4 13 10 13 12 9 9 9 11 11 15 14 22 14 26 12 24 14 32 2 1 1-5 4-5 12-9 11-10 8-7 11-11 8-7 10-10 8-10 4-10 3-11 3-16 4-9 6 1 9 7 7 7 12 16 10 15 13 24 9 20 5 14v2l6-5 6-10 9-17 5-6 4 1 5 6 9 16 9 24 5 18 2 16v34l-3 22-6 26-8 30 11-7 11-9 15-15 10-14 8-14 12-23 5-1 5 5h4l4-11 4-20 3-10 3-1 5 5 11 19 10 22 10 30 5 23 3 21 1 11v39l-3 23-5 23-12 36 47-15 44-15 14-5h6l3 3 1 3v9l-5 30-8 26-9 21-10 19-8 12-10 13-5 7 12 1 8 3 1 4-8 16-10 14-7 9-12 14-11 12-8 8-8 7-10 9-2 1 1 4 30 15 26 11 27 9 15 3 14 1 13 4 1 4-7 10-14 15-13 11-10 6-16 7-31 11-1 3 6 2 2 5-8 7-17 8-19 6-17 4-33 4h-27l-34-4-61-13-6-1-25-1 6 23v21l-4 19-4 12-8 16-7 10-9 10-5 8v21l-4 8-5 4-11 3-54 1-26 1h-32l-25-6-9-2h-26l-28 7-6 1h-32l-17-1-60-1-12-3-7-6-2-5v-21l-4-8-12-13-9-14-6-13-4-13-3-14v-18l4-17 3-10-25 1-31 6-35 8-29 4h-22l-35-3-27-5-14-4-14-5-10-6-5-5 2-4 5-5 1-3-11-3-27-9-17-9-9-7-13-12-11-12v-13l9-2 17-1 14-3 18-6 25-11 37-17 3-1-1-4-16-15-12-11-12-13-18-22-10-14-9-15 1-5 8-2h14l-3-5-7-8-9-13-10-17-9-19-9-25-5-18-2-13-1-15 2-9 1-2 7 1 49 16 36 12 20 6-9-25-7-26-4-23-1-12v-37l2-18 6-27 7-24 7-20 9-21 9-14 4-5 4-1 3 7 2 9 3 21 3 8 4-1 7-7 3 1 12 23 8 14 9 13 9 10 2 1v2l4 2 10 9 14 9-10-33-6-29-1-11v-45l2-13 8-26 9-20 10-16 4-2 4 5 12 23 6 9 4-2 7-14 9-21 11-20 8-12 12-16 11-12 8-6 4-1 3 3 4 15 3 16 6 12 7 9 9 10 33 33 3 2v2l4 2 5 3 2-5 11-23 9-17 11-23 9-19 7-19 3-14v-13l-3-14z" fill="#4D1306" fill-opacity="0"/>
<path transform="translate(260,138)" d="m0 0 4 2 4 7 7 9 15 15 19 14 13 9 12 8 16 12 11 9 10 9 6 5 7 8 9 10 13 19 8 14 11 23 8 21 7 21 7 27 1 2v-23l-4-22v-5l5-3 19-7 30-7 14-2 13-1h20l16 1 25 4 16 4 21 8 5 3-4 24-1 9v15l3-6 8-29 11-31 7-15 11-21 13-19 11-13 11-12 8-7 14-12 11-8 18-13 13-9 18-13 13-12 9-10 5-8 2-4 4 4 5 11 5 14 4 18 2 25v15l-3 24-5 24-12 36-12 25-13 22-13 19-12 16-13 16-14 15-5 6h-2l-2 4-14 14-1 2 6-3 5 1 4 16 8 24 9 22 6 10 8 9-1 4-10 9-1 7 3 2 18 2 1 4-10 9-1 6 8 6 6 3 1 2-9 11-9 10-13 12-14 10-19 11-17 8-27 11-28 9-28 7-28 6-7 1v2l31-2 29-4 9-2h9l1 2-13 9-16 8-19 7-13 4-27 5-7 1h-29l-24-3-24-6-28-10-9-4-10-6-1-5-4-1 1-1 13 1 31 5 25 2h6l2-1-52-12-33-10-31-12-17-8-19-11-13-10-10-9-6-5-7-8-8-9-2-5 12-6 3-3-1-5-11-11v-3l16-1 5-2 2-5-4-5-9-7 1-4 7-8 8-14 12-32 8-28h4l6 3-6-7-7-7-7-8-7-7-9-11-9-10-13-17-10-13-12-19-12-22-9-19-6-16-7-25-4-20-2-26v-15l2-25 4-16 6-17z" fill="#FB8524" fill-opacity="0"/>
<path transform="translate(423,673)" d="m0 0h5l1 5 5 2 7 4 7 3 28 10 24 6 24 3h29l18-3 16-3 30-10 16-8 11-7 4-2 5 12 8 26 6 26 3 23v32l-3 21-4 17-6 18-8 18-8 16-2 3-18-9-8-2-17-1 18 5 11 6 8 9 3 8v7l-3 7-5 6-3 1-2-1-4-11-2-1v11l-3 4-4 1h-15l-3-1 1-4v-7l-4-6-2-1 2 5-1 9-4 2-10-1-11-4-6-7-2-6v-16l4-18 7-20 14-34 5-15 2-11v-21l-4-23-3-16v-5h-3l-1 9v16l1 22v22l-7 20-11 26-7 18-5 18-2 12v24h-19l1-9v-14l-4-20-10-28-6-15-6-13-6-17-1-9v-9l2-16v-27l-1-11h-3l-4 18-3 20v27l2 14 7 19 12 28 8 24 3 15v14l-5 10-6 5-13 4-6-1-3-6 1-8-4 1v11l1 5-18 1-7-2-1-2-1-11h-2l-2 11-7-1-7-6-2-6 1-9 4-8 4-5 13-8 11-3 7-1-5-1h-10l-16 5-10 7h-2l-15-30-8-22-5-21-3-26v-19l3-26 7-32 6-19z" fill="#FB8524" fill-opacity="0"/>
<path transform="translate(146,216)" d="m0 0 3 1 9 30 4 24 4 3 5-1 4-11 1-8 3-1 9 15 11 13 7 8 9 9 14 11 17 14 10 7 6 5 17 28 11 16 13 17 12 13 11 11 8 7 9 7-1 7-7 25-8 24-10 20-8 9-5 3-1 6 3 5v5l-14-1v11l8 16 1 3-1 1-11 2-2 3 1 7 8 10 6 8v2l-6-2-19-12-18-12-12-9-13-10-11-10-8-7-25-25-11-14-10-13-15-23-12-23-8-19-5-15-6-24-3-19-2-20v-24l3-24 7-30 9-27z" fill="#FB8624" fill-opacity="0"/>
<path transform="translate(923,217)" d="m0 0 4 2 11 30 8 26 5 25 2 19v35l-4 26-6 24-8 23-8 18-8 15-13 21-12 16-11 13-9 10-6 7-8 7-12 12-25 20-17 12-15 10-20 12h-2l1-4 7-7 7-11v-6l-4-3-9-1 1-5 6-10 2-7v-6l-2-3-12 1-1-4 4-6-1-6-8-6-7-8-7-15-12-36-6-21 4-5 12-9 18-18 7-8 13-17 12-18 12-20 6-8 12-10 13-9 14-11 7-6 5-5 5-6 5-5 11-14 6-9 3-5h2l4 18 3 3 5-1 3-7 3-16 7-24z" fill="#FB8624" fill-opacity="0"/>
<path transform="translate(504,13)" d="m0 0 5 2 7 7 8 7 7 6 7 8 13 14 7 9 10 15 12 21 13 27 7 19 9 27 8 32 1 3 9-1 3-5 3-8 2 1 5 23 4 33v31l-2 10-10 25h-4l-18-8-16-5-24-5-17-2h-32l-24 3-18 4-17 5-19 8h-4l-5-18-4-36v-28l3-26 4-18 5-19 10-26 4-9 8-16 17-33 8-16 9-21 4-16z" fill="#FB8624" fill-opacity="0"/>
<path transform="translate(220,637)" d="m0 0h20l24 2 20 3 24 6 24 8 25 11 25 12 22 12-1 10-6 21-2 2-9 3-17 8-12 8-12 11-10 11-17-2h-12l-21 3-21 5-28 8-26 5-11 1h-24l-30-5-27-7-16-6 12-12 2-6-17-4-21-5-24-8-16-8-11-7-13-13v-2l3-1 17-2 19-5 18-7 32-16 18-8 13-6 24-9 28-7 20-3z" fill="#FB8624" fill-opacity="0"/>
<path transform="translate(828,637)" d="m0 0h25l26 3 24 5 27 9 30 13 26 13 20 9 20 7 18 4 13 1-2 5-11 11-14 9-18 8-20 6-33 8-2 1v6l9 8 3 2v2l-24 8-19 5-14 3-19 2h-21l-21-3-14-3-43-11-20-4-9-1h-13l-15 2-5-5-7-8-12-10-15-9-16-7-7-3-3-9-5-18v-5l23-12 16-8 19-9 26-10 19-6 37-7z" fill="#FB8624" fill-opacity="0"/>
<path transform="translate(801,184)" d="m0 0h2l-1 7-4 9v12l3 22v24l-6 31-5 17-7 19-10 18-7 11-10 13-11 12-6 7-8 7-15 13-14 14-8 11-4 10-1 5-1 42-2 18-4 16-5 12-8 10-9 8-10 5-11 3-8 1h-19l-32-5h-9l-15 5v-12l4-26 5-18 8-16 10-14 9-10 9-9 11-9 16-15 8-9 12-19 7-15 7-19 15-54 7-21 9-19 12-17 10-11 14-11 16-10 27-15 14-10 7-7 7-10z" fill="#6E1F02" fill-opacity="0"/>
<path transform="translate(484)" d="m0 0h24l4 4 13 10 13 12 9 9 9 11 11 15 14 22 14 26 12 24 14 32 2 1 1-5 4-5 12-9 11-10 8-7 11-11 8-7 10-10 8-10 4-10 3-11 3-16 4-9 6 1 9 7 7 7 12 16 10 15 13 24 9 20 5 14v2l6-5 6-10 9-17 5-6 4 1 5 6 9 16 9 24 5 18 2 16v34l-3 22-6 26-8 30 11-7 11-9 15-15 10-14 8-14 12-23 5-1 5 5h4l4-11 4-20 3-10 3-1 5 5 11 19 10 22 10 30 5 23 3 21 1 11v39l-3 23-5 23-12 36 47-15 44-15 14-5h6l3 3 1 3v9l-5 30-8 26-9 21-10 19-8 12-10 13-5 7 12 1 8 3 1 4-8 16-10 14-7 9-12 14-11 12-8 8-8 7-10 9-2 1 1 4 30 15 26 11 27 9 15 3 14 1 13 4 1 4-7 10-14 15-13 11-10 6-16 7-31 11-1 3 6 2 2 5-8 7-17 8-19 6-17 4-33 4h-27l-34-4-61-13-6-1-25-1 6 23v21l-4 19-4 12-8 16-7 10-9 10-5 8v21l-4 8-5 4-11 3-54 1-26 1h-32l-25-6-9-2h-26l-28 7-6 1h-32l-17-1-60-1-12-3-7-6-2-5v-21l-4-8-12-13-9-14-6-13-4-13-3-14v-18l4-17 3-10-25 1-31 6-35 8-29 4h-22l-35-3-27-5-14-4-14-5-10-6-5-5 2-4 5-5 1-3-11-3-27-9-17-9-9-7-13-12-11-12v-13l9-2 17-1 14-3 18-6 25-11 37-17 3-1-1-4-16-15-12-11-12-13-18-22-10-14-9-15 1-5 8-2h14l-3-5-7-8-9-13-10-17-9-19-9-25-5-18-2-13-1-15 2-9 1-2 7 1 49 16 36 12 20 6-9-25-7-26-4-23-1-12v-37l2-18 6-27 7-24 7-20 9-21 9-14 4-5 4-1 3 7 2 9 3 21 3 8 4-1 7-7 3 1 12 23 8 14 9 13 9 10 2 1v2l4 2 10 9 14 9-10-33-6-29-1-11v-45l2-13 8-26 9-20 10-16 4-2 4 5 12 23 6 9 4-2 7-14 9-21 11-20 8-12 12-16 11-12 8-6 4-1 3 3 4 15 3 16 6 12 7 9 9 10 33 33 3 2v2l4 2 5 3 2-5 11-23 9-17 11-23 9-19 7-19 3-14v-13l-3-14z" fill="#4D1306"/>
<path transform="translate(260,138)" d="m0 0 4 2 4 7 7 9 15 15 19 14 13 9 12 8 16 12 11 9 10 9 6 5 7 8 9 10 13 19 8 14 11 23 8 21 7 21 7 27 1 2v-23l-4-22v-5l5-3 19-7 30-7 14-2 13-1h20l16 1 25 4 16 4 21 8 5 3-4 24-1 9v15l3-6 8-29 11-31 7-15 11-21 13-19 11-13 11-12 8-7 14-12 11-8 18-13 13-9 18-13 13-12 9-10 5-8 2-4 4 4 5 11 5 14 4 18 2 25v15l-3 24-5 24-12 36-12 25-13 22-13 19-12 16-13 16-14 15-5 6h-2l-2 4-14 14-1 2 6-3 5 1 4 16 8 24 9 22 6 10 8 9-1 4-10 9-1 7 3 2 18 2 1 4-10 9-1 6 8 6 6 3 1 2-9 11-9 10-13 12-14 10-19 11-17 8-27 11-28 9-28 7-28 6-7 1v2l31-2 29-4 9-2h9l1 2-13 9-16 8-19 7-13 4-27 5-7 1h-29l-24-3-24-6-28-10-9-4-10-6-1-5-4-1 1-1 13 1 31 5 25 2h6l2-1-52-12-33-10-31-12-17-8-19-11-13-10-10-9-6-5-7-8-8-9-2-5 12-6 3-3-1-5-11-11v-3l16-1 5-2 2-5-4-5-9-7 1-4 7-8 8-14 12-32 8-28h4l6 3-6-7-7-7-7-8-7-7-9-11-9-10-13-17-10-13-12-19-12-22-9-19-6-16-7-25-4-20-2-26v-15l2-25 4-16 6-17z" fill="#FB8524"/>
<path transform="translate(423,673)" d="m0 0h5l1 5 5 2 7 4 7 3 28 10 24 6 24 3h29l18-3 16-3 30-10 16-8 11-7 4-2 5 12 8 26 6 26 3 23v32l-3 21-4 17-6 18-8 18-8 16-2 3-18-9-8-2-17-1 18 5 11 6 8 9 3 8v7l-3 7-5 6-3 1-2-1-4-11-2-1v11l-3 4-4 1h-15l-3-1 1-4v-7l-4-6-2-1 2 5-1 9-4 2-10-1-11-4-6-7-2-6v-16l4-18 7-20 14-34 5-15 2-11v-21l-4-23-3-16v-5h-3l-1 9v16l1 22v22l-7 20-11 26-7 18-5 18-2 12v24h-19l1-9v-14l-4-20-10-28-6-15-6-13-6-17-1-9v-9l2-16v-27l-1-11h-3l-4 18-3 20v27l2 14 7 19 12 28 8 24 3 15v14l-5 10-6 5-13 4-6-1-3-6 1-8-4 1v11l1 5-18 1-7-2-1-2-1-11h-2l-2 11-7-1-7-6-2-6 1-9 4-8 4-5 13-8 11-3 7-1-5-1h-10l-16 5-10 7h-2l-15-30-8-22-5-21-3-26v-19l3-26 7-32 6-19z" fill="#FB8524"/>
<path transform="translate(146,216)" d="m0 0 3 1 9 30 4 24 4 3 5-1 4-11 1-8 3-1 9 15 11 13 7 8 9 9 14 11 17 14 10 7 6 5 17 28 11 16 13 17 12 13 11 11 8 7 9 7-1 7-7 25-8 24-10 20-8 9-5 3-1 6 3 5v5l-14-1v11l8 16 1 3-1 1-11 2-2 3 1 7 8 10 6 8v2l-6-2-19-12-18-12-12-9-13-10-11-10-8-7-25-25-11-14-10-13-15-23-12-23-8-19-5-15-6-24-3-19-2-20v-24l3-24 7-30 9-27z" fill="#FB8624"/>
<path transform="translate(923,217)" d="m0 0 4 2 11 30 8 26 5 25 2 19v35l-4 26-6 24-8 23-8 18-8 15-13 21-12 16-11 13-9 10-6 7-8 7-12 12-25 20-17 12-15 10-20 12h-2l1-4 7-7 7-11v-6l-4-3-9-1 1-5 6-10 2-7v-6l-2-3-12 1-1-4 4-6-1-6-8-6-7-8-7-15-12-36-6-21 4-5 12-9 18-18 7-8 13-17 12-18 12-20 6-8 12-10 13-9 14-11 7-6 5-5 5-6 5-5 11-14 6-9 3-5h2l4 18 3 3 5-1 3-7 3-16 7-24z" fill="#FB8624"/>
<path transform="translate(504,13)" d="m0 0 5 2 7 7 8 7 7 6 7 8 13 14 7 9 10 15 12 21 13 27 7 19 9 27 8 32 1 3 9-1 3-5 3-8 2 1 5 23 4 33v31l-2 10-10 25h-4l-18-8-16-5-24-5-17-2h-32l-24 3-18 4-17 5-19 8h-4l-5-18-4-36v-28l3-26 4-18 5-19 10-26 4-9 8-16 17-33 8-16 9-21 4-16z" fill="#FB8624"/>
<path transform="translate(220,637)" d="m0 0h20l24 2 20 3 24 6 24 8 25 11 25 12 22 12-1 10-6 21-2 2-9 3-17 8-12 8-12 11-10 11-17-2h-12l-21 3-21 5-28 8-26 5-11 1h-24l-30-5-27-7-16-6 12-12 2-6-17-4-21-5-24-8-16-8-11-7-13-13v-2l3-1 17-2 19-5 18-7 32-16 18-8 13-6 24-9 28-7 20-3z" fill="#FB8624"/>
<path transform="translate(828,637)" d="m0 0h25l26 3 24 5 27 9 30 13 26 13 20 9 20 7 18 4 13 1-2 5-11 11-14 9-18 8-20 6-33 8-2 1v6l9 8 3 2v2l-24 8-19 5-14 3-19 2h-21l-21-3-14-3-43-11-20-4-9-1h-13l-15 2-5-5-7-8-12-10-15-9-16-7-7-3-3-9-5-18v-5l23-12 16-8 19-9 26-10 19-6 37-7z" fill="#FB8624"/>
<path transform="translate(801,184)" d="m0 0h2l-1 7-4 9v12l3 22v24l-6 31-5 17-7 19-10 18-7 11-10 13-11 12-6 7-8 7-15 13-14 14-8 11-4 10-1 5-1 42-2 18-4 16-5 12-8 10-9 8-10 5-11 3-8 1h-19l-32-5h-9l-15 5v-12l4-26 5-18 8-16 10-14 9-10 9-9 11-9 16-15 8-9 12-19 7-15 7-19 15-54 7-21 9-19 12-17 10-11 14-11 16-10 27-15 14-10 7-7 7-10z" fill="#6E1F02"/>
<path transform="translate(268,183)" d="m0 0 6 5 7 10 9 8 15 9 27 15 16 11 12 11 9 10 10 15 10 21 5 15 12 44 7 22 8 20 10 18 13 16 12 11 8 7 10 9 14 14 10 14 9 19 5 18 3 18 1 18-5-1-6-3-4-1h-8l-23 4-13 1h-17l-14-3-12-5-11-8-8-10-6-15-3-11-2-15-1-43-2-11-7-14-11-13-8-8-11-9-10-9-2-1v-2l-4-2-10-11-12-16-8-13-12-23-9-27-5-26-1-8v-24l3-24v-8l-5-13z" fill="#6E1F02"/>
<path transform="translate(25,419)" d="m0 0 5 1 34 12 49 15 22 7 5 8 9 16 7 10 15 20 12 13 7 8 24 24 11 9 13 11 18 13 23 15 28 16 23 12 13 7 15 9 15 8 14 6 18 6 8 2-1 6-2 6-5-1-23-12-16-8-23-10-25-9-18-5-22-5-18-3-11-1h-35l-23 3-20 4-20 6-8 3-6-1-14-10-15-13-12-11-9-10-13-17-10-16v-2l18-2 6-3-1-6-10-11-11-14-10-14-11-19-9-23-6-20-5-26z" fill="#FB8624"/>
<path transform="translate(1044,418)" d="m0 0h3l-2 15-6 25-7 21-11 23-10 15-9 12-12 14-6 8-1 4 4 3 15 2h5v3l-10 16-10 13-12 14-12 12-11 9-18 13-5 1-21-7-16-4-24-4-10-1h-34l-31 4-26 6-26 8-22 9-13 6-18 8-20 11-3 2h-4l-3-8v-3l7-3 18-6 19-8 16-9 19-11 31-16 16-9 19-12 13-9 18-13 11-9 16-13 27-27 18-22 13-18 11-18 6-10 9-4 54-16 35-12z" fill="#FB8624"/>
<path transform="translate(847,306)" d="m0 0 2 1-6 5-8 16h-2l-2 5-8 13-7 15-5 16-3 11-1 10v22l2 12 5 15 5 10 8 11 5 3v2l7 2 8 3 14 1 15-3 16-7 14-10 3-3h5l-4 9-11 18-13 17-8 10-13 13-5 6-8 7-12 11-10 8-11 8-14 10-10 7-5 2h-6v2l-3 1 2-5 1-2v-6l-4-3-9-1 1-5 6-10 2-7v-6l-2-3-12 1-1-4 4-6-1-6-8-6-7-8-7-15-12-36-6-21 4-5 12-9 18-18 7-8 13-17 12-18 12-20 6-8 12-10 13-9z" fill="#E05C15"/>
<path transform="translate(225,307)" d="m0 0 5 3 16 13 10 7 6 5 17 28 11 16 13 17 12 13 11 11 8 7 9 7-1 7-7 25-8 24-10 20-8 9-5 3-1 6 3 5v5l-14-1v11l8 16 1 3-1 1-11 2-2 3 1 7 4 5v2h-2v-2l-8-1-5-4-12-8-19-14-13-11-10-8v-2l-4-2-19-19-7-8-8-9-7-9-8-12-10-17-3-4v-2l5 1 12 10 10 6 8 4 16 4h8l15-4 11-7 9-10 8-16 4-13 1-5v-32l-6-25-6-16-8-14-10-15v-3h2l-4-6-7-5z" fill="#E05C15"/>
<path transform="translate(526,568)" d="m0 0h18l9 4 3 4-1 7-6 7h-2v2l5 2 10 5 3 1h16l19-5 17-11 4-2 1-2-4-1 1-4 2-1h12l8 4v4l-3 1 2 6 4 9v14l-5 10-9 10-11 7-12 5-20 4-22 2h-60l-27-3-16-4-16-8-10-9-5-6-3-7-1-11 3-11 3-5 1-4-5-1 5-5 7-3h7l6 3 1 3-4 4 5 2 10 5 7 4 12 4 9 1h14l10-4 4-3-1-4-5-6v-7l7-6z" fill="#521404"/>
<path transform="translate(352,64)" d="m0 0 2 2 5 21 8 16 11 12 3 2v2l4 2 16 15 11 10 8 7 7 7 4 5-1 7-6 23-3 15-3 27-1 32-5-5-9-13-10-11-7-8-16-16-2-1v-2l-4-2-20-15-21-16-11-8-5-3v-2l-4-2-1-1v-7l9-29 10-21 7-11 10-14z" fill="#FB8624"/>
<path transform="translate(718,65)" d="m0 0h2l9 11 10 13 10 15 10 21 8 24 3 11-1 4-12 10-14 10-12 9-13 10-14 11-8 7-15 15-7 8-9 11-7 10-2-3-1-23-4-27-5-21-5-17-1-2v-6l16-17 13-12 15-14 5-5h2v-2l5-5 9-10 5-8 5-14z" fill="#FB8624"/>
<path transform="translate(220,637)" d="m0 0h20l24 2 20 3 24 6 24 8 25 11 25 12 22 12-1 10-6 21-2 2-9 3-17 8-12 8-12 11-10 11-17-2h-12l-21 3-21 5-28 8-26 5-11 1h-24l-30-5-4-2h10l1-3 32-4 23-4 18-4 24-8 16-7 17-10 8-6h2v-2l7-6 3-5h2l2-5 6-12 2-8v-10l-4-11-6-9-14-11-7-5-8-4-7-2-20-2h-38l-18 2-14 3h-5l4-2 21-4z" fill="#E05C15"/>
<path transform="translate(828,637)" d="m0 0h25l18 2v1h-48l-19 2-11 4h-3v2l-14 8-4 2v2l-5 5-4 5-4 9-1 3v16l4 11 7 11 11 12 18 12 13 6 3 1v2l6 1 27 9 10 2 18 4 28 4 11 3 2 2 10 1v1l-14 3-19 2h-21l-21-3-14-3-43-11-20-4-9-1h-13l-15 2-5-5-7-8-12-10-15-9-16-7-7-3-3-9-5-18v-5l23-12 16-8 19-9 26-10 19-6 37-7z" fill="#E05C15"/>
<path transform="translate(440,181)" d="m0 0 1 4-1 11 3 10 3 13 8 14 5 6v2l4 2 7 6 11 7 11 5 5 2 17 5 22 3h25l23-3 5-2 10-2 19-10 7-6 9-15h3l1 9 2 4 1-12h1l2 19v31l-2 10-10 25h-4l-18-8-16-5-24-5-17-2h-32l-24 3-18 4-17 5-19 8h-4l-5-18-4-36v-28l3-26 4-18z" fill="#E05C15"/>
<path transform="translate(677,735)" d="m0 0 5 1 20 10 12 9 10 10 9 14 5 11 4 15v20l-4 15-8 16-8 11-8 10-11 11-9-2-11-3 5 5 9 7 8 9 1 6-6 8-3 2h-5l-1-9h-2l-2 9-2 2h-13l-3-1-1-11-3 2-3 6-4 2-10-3-2-1 1-14v-10l9-15 12-28 7-25 4-23 1-14v-15l-1-20-2-12z" fill="#FA8524"/>
<path transform="translate(392,735)" d="m0 0h2l-1 8-2 27v12l2 26 5 23 5 16 7 17 8 16 6 10 1 3v21l-1 3-7 2h-6l-3-3-3-5v-2h-2l-1 12h-17l-4-9-1 7-5 1-6-4-3-5v-6l9-10 8-7 7-5-7 1-11 4-5-1-7-7v-2l-3-1-9-11-7-10-7-15-4-15v-22l3-12 5-12 6-10 11-12 9-8 14-8z" fill="#FB8524"/>
<path transform="translate(930,465)" d="m0 0 1 3-2 5-4 16-14 28-14 21-10 14-10 11-9 11-8 8-5 7 1 7 6 5 8 3 27 2h66l3 2-2 4-7 6-11 7-13 10-4 2-2 3-19-6-16-4-24-4-10-1h-34l-31 4-26 6-26 8-22 9-13 6-18 8-20 11-3 2h-4l-3-8v-3l7-3 18-6 19-8 16-9 19-11 31-16 16-9 19-12 13-9 18-13 11-9 16-13 27-27 18-22 13-18z" fill="#E05C15"/>
<path transform="translate(140,464)" d="m0 0 4 5 6 10 8 12 14 18 11 12 7 8 24 24 11 9 13 11 18 13 23 15 28 16 23 12 13 7 15 9 15 8 14 6 18 6 8 2-1 6-2 6-5-1-23-12-16-8-23-10-25-9-18-5-22-5-18-3-11-1h-35l-23 3-20 4-20 6-5 2-3-1 2-2-11-6-8-6-11-8-7-5v-4l5-1h37l26-1 23-2 11-4 5-5 1-5-1-5h-2v-2h-2l-7-8v-2l-3-1-4-5v-2l-3-1-9-11-4-5v-2h-2l-8-12-11-17-8-16-6-14-4-12z" fill="#E05C15"/>
<path transform="translate(329,607)" d="m0 0 4 2 13 8 24 12 20 8 24 8 21 6 22 5 16 2 17 2 11 1 31 2h29l21-2 37-5 16-3 28-4 6-2h5l-4 3-25 9-24 7-45 10-7 1v2l31-2 29-4 9-2h9l1 2-13 9-16 8-19 7-13 4-27 5-7 1h-29l-24-3-24-6-28-10-9-4-10-6-1-5-4-1 1-1 13 1 31 5 25 2h6l2-1-52-12-33-10-31-12-17-8-19-11-13-10-8-7z" fill="#E05C15"/>
<path transform="translate(544,61)" d="m0 0h3l9 13 13 23 9 19 8 15 1 6-5-2-7-8-3-3h-4l-6 13-3 1-6-8-4-4-4 8-10 23-4 1-6-12-5-12v-2l-5 2-6 7-4 1-6-10v-2l-8 2-16 7-4 2-4-1 1-5 10-19 11-23 8-17 6-14 3 1 2 12v7l5-3h5l6 13 3-1 3-7 1-7h4l3 6h2l3-10z" fill="#FFC093"/>
<path transform="translate(642,465)" d="m0 0h24l9 3-2 2-13 1-1 3 7 11 4 12v13l-5 16-2 4h-2l-1 4-9 8-12 6-4 1h-14l-12-4-10-8-6-9-3-9-4 2-4 7h-1v-6l8-18 7-12 8-9 13-9 7-4 12-4z" fill="#460F04"/>
<path transform="translate(442,588)" d="m0 0 5 1 8 7 13 8 12 6 11 3 7 1h9l17-4 10-5 5 1 13 6 8 2h16l16-4 16-8 11-8 7-6 4 1 5 9-1 4-10 7-13 7-6 9-4 2-2-6-8 1-12 3h8l8-1 3 8 8-2 6-5 4-5 11-6 4-3h3l-1 5-7 8-10 7-12 5-16 3-10 1h-85l-22-3-10-3-11-6-11-11-2-6 6 2 13 8 4 4v2l12 6 2-1 2-7 14 1 9 1v-2h-8l-13-4h-5l-2 6-5-2-5-9-18-10-7-6 1-4z" fill="#FEFBF9"/>
<path transform="translate(406,467)" d="m0 0 19 1 16 4 12 6 12 9 10 11 8 12 7 15-1 4-6-8-3 3-4 8-11 11-10 5-3 1h-13l-9-2-12-6-9-10-7-17-1-11 2-13 6-12 3-5-12-2-4-2z" fill="#470F04"/>
<path transform="translate(801,184)" d="m0 0h2l-1 7-4 9v12l3 22v24l-6 31-5 17-7 19-10 18-7 11-10 13-11 12-6 7-5 1 2-5 12-15 7-10 12-19 8-16 3-8 1-9 2-7 5-25 2-12v-11l-2-25-2-5-5 1-8 5-12 5-23 11-11 8-10 9-8 9-8 14-8 17-9 27-12 42-8 22-8 16-7 11-8 11-7 5-2 3h-2l-2 4-6 5-5 5-4 3h-3v2l-6 4-7 6-6 7-1-3 13-13 11-9 16-15 8-9 12-19 7-15 7-19 15-54 7-21 9-19 12-17 10-11 14-11 16-10 27-15 14-10 7-7 7-10z" fill="#4A1003"/>
<path transform="translate(847,648)" d="m0 0h13l29 4 11 3 1 5-6 5v3l21 10 2 2-1 5-9 17-3 7 1 5 10 11 2 3-1 6-8 10 1 5 4 5-1 2-19-1-18-3-16-5-1-4 23-4-1-4-2-4h-2l-7-8-11-12 1-4 25-13v-3l-15-10-14-9 1-4 14-6 2-3-10-3-16-5z" fill="#FFC093"/>
<path transform="translate(217,648)" d="m0 0h8l-1 3-24 8 1 3 14 7-1 4-19 12-7 5h-2l1 4 21 11 4 3-1 4-13 14-7 8-3 5 21 3 3 1-1 4-16 5-26 4h-11l1-4 4-3-1-6-7-8-2-3 1-5 11-12 2-3-1-5-12-23-1-4 5-3 19-9-3-5-4-4 1-4 12-3 10-2z" fill="#FFC093"/>
<path transform="translate(268,183)" d="m0 0 6 5 7 10 9 8 15 9 27 15 16 11 12 11 9 10 10 15 10 21 5 15 12 44 7 22 8 20 10 18 2 5h-4l-2-4h-2l-4-7-6-10-7-14-6-16-5-16-7-26-2-5-2-8-4-10-4-11-9-17-9-12v-2l-3-1-5-7-11-9v-2l-12-6v-2l-5-1-13-6-7-3-11-5-8-2-2 15-1 8v13l5 25 3 12 3 16 1 9 8 16 6 11 7 11 8 11 6 8v2h2v2h2l6 7-1 3-6-3v-2l-4-2-10-11-12-16-8-13-12-23-9-27-5-26-1-8v-24l3-24v-8l-5-13z" fill="#4C1103"/>
<path transform="translate(746,409)" d="m0 0 3 1-5 10-12 12-3 4 6 21 12 36 8 16 8 9 6 4 1 6-4 6v3l12-1 3 4-1 10-9 18h9l5 4v6l-7 11-6 6-4 2-1 2-8 1-6 6-5 1 2-4 6-6 2-5 9-11-3-3-8-4-4-4 1-6 8-8 2-1v-3l-18-2-4-3 1-7 11-10-1-4-7-8-6-10-11-27-9-29-1-6-7 1-3 1 2-4 19-19 8-7 7-8z" fill="#4B1103"/>
<path transform="translate(499,805)" d="m0 0 1 2 5 2 13 8 10 3h16l19-8 3-2h4l1-4 1 2-5 14-6 13-9 23-5 18-2 12v24h-19l1-9v-14l-4-20-10-28-6-15-6-13-2-5z" fill="#E05C15"/>
<path transform="translate(391,743)" d="m0 0h1v13l-1 14v12l2 26 5 23 5 16 7 17 8 16 6 10 1 3v21l-1 3-7 2h-6l-3-3 1-2 2-2 5-13 1-5-2-8-3-6-2-1v-2h-2l-3-4v-2h-2l-7-10-9-14-7-11-4-8-7-15-4-14-1-18 1-5 3-9 5-10 3-1 2-4 6-5z" fill="#E05C15"/>
<path transform="translate(677,735)" d="m0 0 5 1-2 4 1 4 6 1 5 4 9 12 5 14 1 6v12l-4 15-6 15-11 22-11 16-10 14h-2l-2 5-2 1-4 8-1 8 1 6 4 5 3 5h2l-2 5-4 2-10-3-2-1 1-14v-10l9-15 12-28 7-25 4-23 1-14v-15l-1-20-2-12z" fill="#E05C15"/>
<path transform="translate(986,446)" d="m0 0h4l-1 8-5 16 17-1-1 6-6 8-1 4 17 7 1 4-6 10-9 12-12 13-7 6-1-4 4-13v-2l-19-1-6-1 1-4 11-13 3-5-16-1-7-2 5-9 11-15v-4l-8-5v-3l14-5z" fill="#FFC093"/>
<path transform="translate(185,284)" d="m0 0 4 1 11 11 8 7 10 9v2l-11-1h-14l-12 20-5 11-4 1-5-5-13-9-6 2-11 9-7 10-3-1-2-11v-25l3-14 4 2 1 8 5-2 9-9 9-7 5 1 7 10v2l4-1 8-14z" fill="#FFC093"/>
<path transform="translate(884,283)" d="m0 0 4 2 10 18 3 3h2l2-5 7-8 5 2 9 7 8 8 3 1 2-6 2-3h2l3 11v27l-2 10h-4l-9-10-8-7-3-2-5 1-14 11-4 2-4-6-7-14-7-10v-2h-10l-14 1-1-2 12-12 8-7z" fill="#FFC093"/>
<path transform="translate(82,446)" d="m0 0 6 1 15 5 13 5v4l-6 3h-3l1 5 12 16 4 5v4l-22 3 6 8 9 11-1 3-25 1 3 10 2 5v4l-4-1-9-10-7-7-10-13-6-9 1-4 18-8-2-5-7-10v-3l11 1 6 1-5-19z" fill="#FFC093"/>
<path transform="translate(415,159)" d="m0 0 5 1 1 4h3v2l5 1 2-2-1 7-6 23-3 15-3 27-1 32-5-5-9-13-10-11-7-8-16-16-2-1v-2l-4-2-4-4 5 2 5 3 19 1 7-1 6-4 3-5 4-9 3-15 1-13z" fill="#E05C15"/>
<path transform="translate(656,158)" d="m0 0 2 2v16l5 21 5 10 4 4 2 1h26l5-2 3 1-9 7-18 18-7 8-9 11-7 10-2-3-1-23-4-27-5-21-5-17-1-2v-6l2 4 1 1 7-8 3-4z" fill="#E05C15"/>
<path transform="translate(352,652)" d="m0 0 5 1 24 11 19 10 6 4 4 1 2-8 1 3-1 13-2 5h-2l-3 10-4 14-2 9v9l-3 9v6l1 3 2 1 1 1 1-8 4-22h2l1-7h1l-1 9-3 15-3 26v19l3 26 5 21 2 9-2-2-5-16-4-23-1-9-1-33-3 1-1 11v14l2 21 5 25 3 7v7l8 20 8 15 6 12 1 9-1 1v16l-9 3h-7l-2-1v-2h8l7-1v-24l-6-11-8-16-7-16-5-16-4-16-2-10-2-26v-12l2-27 2-8-6 2 1-5h-6l-16 8-14 10-4 2 5-6 10-7 5-5 21-10 6-2 7-25v-6l-39-20-27-12-3-2 4-1 13 5 10 4 15 7 14 8-5-4-16-8-24-11 3-1 18 6 6 3h2l-8-4-3-3-11-5z" fill="#511304"/>
<path transform="translate(526,568)" d="m0 0h18l9 4 3 4-1 7-6 7h-2v2l5 2 10 5 3 1h16l17-4-3 3-14 7-6 2h-21l-14-5-3-2-5 1-15 6-5 1h-14l-9-3-16-8-13-9-1-2 5 2 9 5 12 4 9 1h14l10-4 4-3-1-4-5-6v-7l7-6z" fill="#E05C15"/>
<path transform="translate(712,95)" d="m0 0 4 1 4 5 1 3 8 2h5l5-5 6 7 8 19v5h-9l-10 14h-3l-1-2-1-14-4 1-10 9-4 3h-4v-8l1-5-11 2-12 3v-4l9-9 8-10 9-15z" fill="#FFC093"/>
<path transform="translate(357,95)" d="m0 0 4 2 6 11 13 16 9 9v2l-8-1-11-4-6-1 1 14-2 1-13-10-4-4h-4l-1 15-5-1-8-10-1-1h-9l1-7 9-20 4-4 3 1 2 4 13-3 5-8z" fill="#FFC093"/>
<path transform="translate(642,595)" d="m0 0 2 3v14l-5 10-9 10-11 7-12 5-20 4-22 2h-60l-27-3-16-4v-1l12 1 11 2h23l4-1h59l7-1-72-1-4-2 76-1 22-3 12-4 10-6 9-8 3-7-6 3-10 6-5 5-7 6-8 2-3-8-8 1h-12l4-2 15-4h5l2 6 4-2 6-9 18-10 5-4v-4h2l2 5v5l-2 2-1 6h4l3-6z" fill="#5B1805"/>
<path transform="translate(20,709)" d="m0 0 5 2 1 1h7l6 3 12 2 9 3 14 2 12 1h16l11-1 13-3 6-2h5l-3 9-6 10-5 5-9 1h-13l-2 2-9-1-15-4-21-7-16-8-11-7-7-7z" fill="#E05C15"/>
<path transform="translate(441,573)" d="m0 0h7l6 3 1 3-4 4h-13l-2-1 1 3 3 3v5l-3 4 1 4 10 7 13 7 5 8v2l5 1 2-6 8 1 10 3 8 1v2h-9l-14-2-1 8-3 1-8-4-5-5-7-6-15-8 5 8 8 8 16 8 18 3 18 2 4 1 72 1 3 2-16 1h-53l-4 1h-23l-26-4-13-7-10-9-5-6-3-7-1-11 3-11 3-5 1-4-5-1 5-5z" fill="#531505"/>
<path transform="translate(664,698)" d="m0 0 4 2 5 21 2 3 10 2 4 2v2l5 2 12 6 8 6v3l4 2 8 7 4 5 1 6-4-1-5-6-8-7-5-4-3-1-4-4-10-5-9-3-4-2h-3l1 10 2 21v28l-1 9h-2l-1 8-4 15-4 5-1 8-5 3v-8l4-15 3-17 1-9h2v-24l-4-34-3-13v-8l-3-14z" fill="#470F04"/>
<path transform="translate(644,438)" d="m0 0 1 4 1 2h-2l1 10-1 4-10 3-13 9-9 6-5 2-6 7-5 9-6 10-8 18h-2l-1 4-3 1-3 9-2 2-3-7 4-19 8-17 4-7h2l1-4 4-7 10-9 5-2v-2l7-5h2v-2l15-9 8-7h3v-2z" fill="#812404"/>
<path transform="translate(1051,707)" d="m0 0 2 1-9 9-12 8-6-3v2h-5v2l-8 2v2l-21 7-18 4-7 1-4 1-14-3-7-6-6-10-1-7 10 2 1 1 21 3h22l21-3 24-6 10-1z" fill="#E05C15"/>
<path transform="translate(447,851)" d="m0 0 13 1 8 2 2 1v2l4 1 6 4 10 10v2l-11 2-19 2 3-2 12-2-5-1h-10l-16 5-10 7h-2l-3-7 5 2-3-5-2-11 3-5 8-6z" fill="#E05C15"/>
<path transform="translate(616,852)" d="m0 0h12l7 3 6 8v13l-2 3v6l-18-9-8-2-17-1 8 2v1h-8l-3-1-11-1v-3l4-5 9-7 14-6z" fill="#E05C15"/>
<path transform="translate(714,445)" d="m0 0 5 1 4 16 8 24 7 18-1 2-9-3-6-4-5-6-4-4-2-4-2-1-8-16-2-5v-7l8-10 1 2z" fill="#E05C15"/>
<path transform="translate(591,319)" d="m0 0 8 1 22 8 7 4-4 24-1 9v15l3-3-1 6-5-1-5-2-6-14-8-24-4-15 1-5-7-2z" fill="#E05C15"/>
<path transform="translate(472,321)" d="m0 0 3 1-2 10-12 36-4 10-7 7-3-1 1-2v-23l-4-22v-5l5-3 19-7z" fill="#E05C15"/>
<path transform="translate(801,182)" d="m0 0 5 1 4 2 3 10 2 19-1 21-4 14-4 16h-2l-1 3-3 4-3 13h-1l1-10 3-17v-24l-3-22v-12l5-11 1-5h-2z" fill="#E05C15"/>
<path transform="translate(354,444)" d="m0 0 5 2 4 2h3l6 8v8l-7 14-10 14-7 7-6 4h-3v-3h-3l-1 2 1-5 9-24 8-28z" fill="#E05C15"/>
<path transform="translate(267,181)" d="m0 0 4 2-1 2-1-1 1 5 5 13v8l-3 24v24l2 14v5l-2-4-4-10-3-4-5-13-4-28 1-13 1-2 2-13 3-6z" fill="#E05C15"/>
<path transform="translate(352,64)" d="m0 0 2 2 5 21 8 16 11 12 3 2v2l4 2 16 15 10 9h-3l-11-9-8-7-10-9-5-5-2 1-7-10-5-9-3-1-4 4-3 5-9 2-4 1-2-3v-4h-6l-6 5 2-5 7-11 13-17z" fill="#F88223"/>
<path transform="translate(913,465)" d="m0 0 1 3-10 16-10 13-11 13-9 10-6 7-8 7-12 12-25 20-17 12-15 10-20 12h-2l1-4 12-12h2v-2l7-2 7-3 14-10 10-7 10-8 11-9 12-11 3-3h2l2-4h2l2-4 14-14 12-16 7-8 5-5 6-10z" fill="#F98523"/>
<path transform="translate(718,65)" d="m0 0h2l9 11 10 13 10 15 10 21 8 24 3 11-1 4h-1l-3-14-12-31-4-8-6-4-5-5-4 5-7-1-7-2-3-9-1-4-3-2-2 4 1-5 4-12z" fill="#FA8423"/>
<path transform="translate(526,568)" d="m0 0h18l9 4 3 4-1 7-6 7-9 5h-10l-6-4-8-9v-7l7-6z" fill="#4A1003"/>
<path transform="translate(490,775)" d="m0 0h2l1 16 2 7 7 19 10 23 9 24 3 11 1 12v17l-3 6h-5l2-10 1-8-2-12-6-19-5-14-8-20-7-15-4-12-1-6v-15z" fill="#280805"/>
<path transform="translate(685,861)" d="m0 0h13l7 4 3 8v7l2 1-7 7-9-2-11-3h-4l-9-4 1-5 6-9z" fill="#E05C15"/>
<path transform="translate(584,766)" d="m0 0h1l1 16-1 23-2 6-4 4-4 7-2 5-2 4-1 4-6 15-5 15-6 22-3 1-2-1v-11l6-20 6-15 5-10 6-8 3-16 5-16 1-16v-6l4 1z" fill="#290804"/>
<path transform="translate(374,861)" d="m0 0h15l6 4 7 11-1 4-9 4-6-1-12 4-6 1-3-4h3l-1-4-3-5v-7l7-6z" fill="#E05C15"/>
<path transform="translate(669,732)" d="m0 0 4 2 3 11 2 31v26h-2l-1 8-4 15-4 5-1 8-5 3v-8l4-15 3-17 1-9h2v-39l-2-15z" fill="#200705"/>
<path transform="translate(418,669)" d="m0 0 3 1v11l-7 21-4 15h-2l-1 7h-2l-1 11-4 19-2-1-3-4 1-10 2-5v-10l5-19 3-10 2-3h2l2-15 4-7z" fill="#2E0904"/>
<path transform="translate(398,758)" d="m0 0 2 1 1 33 3 21 3 15 5 14 2 11 9 17 2 5v5l-4-3-4-7-3-7-5-10-3-9-3-8-3-10-2-12-2-8-2-21v-14l1-11z" fill="#250705"/>
<path transform="translate(371,641)" d="m0 0 7 1 10 5 10 3v2l9 2 8 3 9 3 11 2 6 2 9 1v2l11 2 18 4 4 3h-20l-17-3v-2l-8-1-12-4-3-3-11-2v2l-7-1-9-3-15-6-2-1 1-2 10 4 7 2v-2l-8-1-3-3-5-1-1-2-8-3z" fill="#2B0804"/>
<path transform="translate(441,174)" d="m0 0 1 4-6 22-4 26-1 11v28l4 36 5 18 25-10 17-5 20-4 19-2h32l23 3 25 6 21 8 7 4-2 1-11-5-21-7-22-5-17-2h-38l-21 3-16 3-23 7-9 4-8 4-3-1-4-13-5-33-1-15v-19l1-16 5-28 6-21z" fill="#7A2203"/>
<path transform="translate(297,638)" d="m0 0 10 1 6 2 27 8 13 5 22 11-3 1-8-4-11-4h-4l28 13 13 7 3 3-5-1-12-7-15-7-14-6-10-3-8-1-21-7v-2h-3v-2l-11-2-3-2z" fill="#2C0904"/>
<path transform="translate(492,724)" d="m0 0h3l1 2v31l-2 16-1 18h-1v-16l-4 4v15l1 10-3-1-2-14v-27l3-20 4-16z" fill="#521304"/>
<path transform="translate(455,501)" d="m0 0 7 1 5 6 1 2v11l-6 9-4 2-6-1-5-6-2-7 1-8 4-6z" fill="#FEFEFE"/>
<path transform="translate(612,501)" d="m0 0 7 1 6 7 1 3v9l-4 8-3 2h-8l-5-5-2-3-1-9 2-7z" fill="#FEFDFD"/>
<path transform="translate(383,731)" d="m0 0h6l1 3-2 4-21 11-11 9-8 8-5 3-3 7-5 4-1-7 4-8 5-6 3-5 11-8 10-7z" fill="#260805"/>
<path transform="translate(393,733)" d="m0 0 3 1-2 10v52l4 24 5 19 8 21 9 19 6 11 2 5v6l-1 1v16l-9 3h-7l-2-1v-2h8l7-1v-24l-6-11-8-16-7-16-5-16-4-16-2-10-2-26v-12l2-27 2-8-6 2 3-3z" fill="#7A2203"/>
<path transform="translate(436,582)" d="m0 0 17 1 17 12 16 9 7 3 5 1-4 2-11-1v2l-5-1-14-7-14-10-5-4h-3l-2 2-1-5-3-1z" fill="#541504"/>
<path transform="translate(676,733)" d="m0 0 6 1 20 11-2 1-23-11 2 8 1 9 1 20v15l-2 21-4 20-7 23-9 21-5 10-6 10v15l-2 9 13 3 4-2-1 3-10 2-7-1-1-8v-21l8-12 10-21 10-30 4-19 2-17v-28l-2-21-1-10z" fill="#7C2304"/>
<path transform="translate(577,725)" d="m0 0h3l7 36 1 8v21l-2 11h-1v-25l-1-6-4-1 1 12-2 13h-1l-1-31-1-17v-19z" fill="#300B05"/>
<path transform="translate(518,314)" d="m0 0h35l19 3 3 3-4 1-31-1h-21l-29 2h-9l2-2 16-4z" fill="#FFC093"/>
<path transform="translate(527,308)" d="m0 0h14l28 3 28 7 20 7 4 3-5-1-20-7-20-4-15-2-16-1h-20l-19 2-18 3-26 7-3-1 21-7 26-7z" fill="#7D2304"/>
<path transform="translate(634,597)" d="m0 0h2l2 5v5l-2 2-2 4v-2l-6 3-10 6-5 5-7 6-8 2-3-8-8 1h-12l4-2 15-4h5l2 6 4-2 6-9 18-10 5-4z" fill="#5A1805"/>
<path transform="translate(408,717)" d="m0 0h1l-1 9-3 15-3 26v19l3 26 5 21 2 9-2-2-5-16-4-23-1-9-1-33-3 1-1 11v14l2 21 5 25 3 7v5l-2-1-4-13-5-26-1-7v-51l2-1 2 8 2 1 1 1 1-8 4-22h2z" fill="#460F04"/>
<path transform="translate(656,386)" d="m0 0 1 4 1 1 4-4-1 5-8 16-10 14-4 6-7 5-2 3h-2l-2 4-6 5-5 5-4 3h-3v2l-6 4-7 6-6 7-1-3 13-13 11-9 16-15 8-9 12-19 7-15z" fill="#4D1104"/>
<path transform="translate(534,600)" d="m0 0 5 1 12 5 5 3 14 4v1h-14l-11-4-7-4-6 1-8 4-17 4h-9l-15-3v-3h11l18-1 13-4z" fill="#501404"/>
<path transform="translate(490,775)" d="m0 0h2l1 16 2 7 7 19 10 23-1 3-3-5-3-1-1 2-5-12-7-15-4-12-1-6v-15z" fill="#310A04"/>
<path transform="translate(496,735)" d="m0 0h1v27l-2 16v9l2 12 6 16 11 26 10 28 4 20v14l-2 9h19l-1-11v-13l1-7h1v18l1 15h-21l-1 3-4 2h-4l-1-4 6-4h2l1-6v-19l-3-14-5-16-10-26-7-15-6-17-1-6v-19l2-16z" fill="#7B2203"/>
<path transform="translate(546,591)" d="m0 0 11 6 8 3h16l17-4-3 3-14 7-6 2h-21l-11-4 3-2 2-2-7-3-1-3z" fill="#E05C15"/>
<path transform="translate(644,660)" d="m0 0h10v2l-6 3h-2v2l-11 3-5 2-35 5-21 1 3-2 41-9z" fill="#270805"/>
<path transform="translate(721,749)" d="m0 0 4 2 7 7 3 4v2l9-1 8-1h13l21 3 32 8 27 7 17 3 10 1h21l24-3 9-2 4 1-16 4-25 3-25-1-16-2-6-2-26-6-5-2-9-2-6-2-12-3-16-2h-23l-5 2-5-1-9-11z" fill="#7C2304"/>
<path transform="translate(646,158)" d="m0 0v3l-5 5v6l5 16 4 15 5 27 1 9 1 23 1 2 7-10 11-13 12-13 14-14 5-2-6 7-6 6h-2l-2 4h-2l-2 4h-2l-2 4-12 13-10 14-3 5-5-1v-27l-2-19-5-24-6-21-2-5 1-7z" fill="#7C2304"/>
<path transform="translate(969,560)" d="m0 0h5l9 3 4 2-2 4-11 4-23 5h-5l-1-3 11-7 10-7z" fill="#E05C15"/>
<path transform="translate(97,560)" d="m0 0 8 1 16 11 7 5v1h-7l-16-3-18-6-3-4 5-2 7-2z" fill="#E05C15"/>
<path transform="translate(689,641)" d="m0 0 3 1-19 9-25 9-30 8-41 9 26-2 27-4 10-2h9v5l-2-2h-9l-15 3-23 3-12 1h-19v-2l25-6 27-6 24-7 20-7z" fill="#7A2203"/>
<path transform="translate(306,762)" d="m0 0h12l17 2 3-2-2 5h-4l-9-2h-24l-22 4-28 8-27 7-23 3h-16l-22-2-18-4-7-2-3-2 8 1 26 5 8 1h24l17-2 23-5 32-9 25-5z" fill="#7C2304"/>
<path transform="translate(436,626)" d="m0 0 7 6 10 6 12 5 13 3 27 3h60l22-2 20-4 12-5 11-7 1 2-4 5-6 1v2l-15 5-5 2-20 3h-84l-23-3-11-3-12-5-11-8-4-4z" fill="#E05C15"/>
<path transform="translate(487,803)" d="m0 0 3 1 6 15 7 15 8 20 8 26 2 12-1 8-2 5h-1l-1-16-4-19-9-25-13-30-3-9z" fill="#5C1703"/>
<path transform="translate(684,731)" d="m0 0 7 1 8 2 11 7 4 3v3l4 2 8 7 4 5 1 6-4-1-5-6-8-7-5-4-3-1-4-4-19-10z" fill="#230705"/>
<path transform="translate(671,780)" d="m0 0h1l1 18 5-4v8h-2l-1 8-4 15-4 5-1 8-5 3v-8l4-15 3-17 1-9h2z" fill="#350B04"/>
<path transform="translate(575,734)" d="m0 0h1l2 29v36l-4 11-2 13-3 3-3 5-5 10-7 18-5 17-2 6h-1l1-11 8-24 15-36 6-17v-22l-1-22z" fill="#661B04"/>
<path transform="translate(809,135)" d="m0 0 5 3 2 6 4 9 5 13 3 14 2 21v29l-1 14-6 28-2 9 1 4-4 2-5 14-1-3 8-25 5-24 3-24v-15l-2-25-4-18-6-17-6-11h-2z" fill="#7B2304"/>
<path transform="translate(440,332)" d="m0 0 2 3 2 8h2l3 16v24l-3-3-9-34v-12z" fill="#350C05"/>
<path transform="translate(398,484)" d="m0 0 2 2v19l1 12 4 13 4 6v2l-4-2-4-7-2-1-6-17-1-3v-10l2-11z" fill="#822505"/>
<path transform="translate(486,641)" d="m0 0h20l72 1 3 2-16 1h-53l-4 1h-23l-4-3h5z" fill="#290805"/>
<path transform="translate(266,146)" d="m0 0 5 5 7 8 12 12 19 14 13 9 12 8 16 12 11 9 10 9h-3l-12-10-14-10-8-6-3-1v-2l-5-2-4-2v-2h-2v-2l-6-2v-2l-5-2-11-9-10-8-10-9-8-9-4-6z" fill="#E05C15"/>
<path transform="translate(827,556)" d="m0 0m-1 1m-1 1m-1 1m-2 1h2l-2 4-8 6-14 10-5 3-7 7-12 7-5 3h-2l1-4 12-12h2v-2l7-2 7-3 14-10z" fill="#F98223"/>
<path transform="translate(428,662)" d="m0 0h7l6 2 9 1v2l11 2 18 4 4 3h-20l-17-3v-2l-8-1-1-4-6-1-3-1z" fill="#2A0905"/>
<path transform="translate(325,605)" d="m0 0 4 2 10 9 14 10 24 13 24 10 22 8 23 7v1l-8-1-6-2-10-2-14-4-10-4v-2l-7-1-6-3v-2l-9-3-25-13-11-8v-2l-4-2-10-9z" fill="#5C1703"/>
<path transform="translate(431,165)" d="m0 0h1v7l-4 13-5 25-2 16-1 15v33l-2 3-6-9-3-6 1-2 6 8 1-31 4-33 6-25z" fill="#7C2304"/>
<path transform="translate(437,611)" d="m0 0 6 2 13 8 4 4v2l4 2 15 8-3 1-13-3-13-7-11-11z" fill="#FEFAF7"/>
<path transform="translate(449,629)" d="m0 0 6 1 11 5 18 3 18 2v1h-16v2l-3 2-21-3v-2l-6-2-6-4z" fill="#210705"/>
<path transform="translate(342,563)" d="m0 0 12 1 28 7 15 5 5 2v2l-11-1-28-7-15-5-6-3z" fill="#571503"/>
<path transform="translate(358,83)" d="m0 0 3 4 4 7 6 5 4 7 9 10 6 6v2l4 2 4 4 3 1 4 4 2 4 6 5 1 3-4-2-16-15-11-10-2-1v-2l-4-2-8-8-7-11-4-9z" fill="#701F02"/>
<path transform="translate(352,539)" d="m0 0 9 2 16 7 16 8 12 8 2 3-10-3-19-9-19-10-6-4z" fill="#380D04"/>
<path transform="translate(760,165)" d="m0 0 4 1-2 4-19 14-20 15h-5l3-5 8-6 7-5h2l1-3 11-8 7-4h2z" fill="#FA8C22"/>
<path transform="translate(249,161)" d="m0 0 1 4-4 16-2 25v15l2 26 5 24 5 17-1 4-5-16-5-19-4-28v-32l5-27z" fill="#7A2203"/>
<path transform="translate(405,824)" d="m0 0 2 4 5 14 2 11 9 17 2 5v5l-4-3-4-7-3-7-5-10-3-9-3-8-2-5v-3l4 1z" fill="#290805"/>
<path transform="translate(339,580)" d="m0 0 20 4 29 7 11 3-1 2-13-1-20-4-15-4-11-5z" fill="#4C1204"/>
<path transform="translate(450,666)" d="m0 0 8 1 44 10 1 2-9 1-33-3-29-5h-7l-2 1 1-4h8l19 4 12 2h18l-15-4-16-4z" fill="#5D1804"/>
<path transform="translate(716,538)" d="m0 0h4v2l-35 17-12 6-5 2-3-1 10-7 19-11z" fill="#531404"/>
<path transform="translate(727,580)" d="m0 0h5v2l-11 4-26 6-12 2h-9l1-2 26-7z" fill="#581504"/>
<path transform="translate(724,562)" d="m0 0h6l-2 2-26 8-23 6-10 1 3-3 27-9z" fill="#571504"/>
<path transform="translate(460,872)" d="m0 0h10l7 1-2 2-15 3-12 6-10 7h-2v-5l4-5 4-4z" fill="#320B05"/>
<path transform="translate(777,204)" d="m0 0h5l-1 3-18 11-22 12-13 9-3-1 3-1 1-4h2v-2l8-5 5-2 9-6 5-3 7-3 5-2 3-1 1-3z" fill="#FA8C22"/>
<path transform="translate(386,655)" d="m0 0 10 3 11 4 5 1v-2l11 1 3 3 16 5 4 2-9-1-5-1h-8l-2 8h-1v-8h-5l-2 5-2 2 1-10h-3v-2l-11-3-13-5z" fill="#491004"/>
<path transform="translate(332,792)" d="m0 0 1 3-2 9v22l4 15 8 17 10 13 5 6 10 10 4 2-5 1-2-1-1-3-8-7-7-8-8-11-5-10-4-9-3-11-1-8v-14l2-12z" fill="#772103"/>
<path transform="translate(633,335)" d="m0 0 3 1-3 10-2 13-4 15h-2l-1 2-1-2 1-17 2-11h2l1-6 2-4z" fill="#330C05"/>
<path transform="translate(596,872)" d="m0 0 17 1 13 4 7 4 2 5 1 5h-3l-6-6-7-3-12-5-13-3z" fill="#320C05"/>
<path transform="translate(283,164)" d="m0 0 4 2 11 9 32 22 28 21 10 9 9 9h-3l-10-10-14-11-13-10-15-10-14-10-15-11-10-9z" fill="#7D2304"/>
<path transform="translate(746,409)" d="m0 0 3 1-5 10-15 15h-3l-1 4-4-2 2-6 5-5 10-9 6-7z" fill="#240705"/>
<path transform="translate(199,528)" d="m0 0 3 1v2l4 2v2l4 2 8 8 8 7v2l4 1 8 6v2l4 2 4 4-5-2-9-5-1-4-7-2-9-6-4-4v-2l-3-1-4-5v-4l-4-2z" fill="#290805"/>
<path transform="translate(493,727)" d="m0 0 3 6-2 32-3 4-2-7-1-7v-11l4-16z" fill="#290805"/>
<path transform="translate(829,635)" d="m0 0h14l24 2 12 2v1h-8l-18-2h-25l-21 2-37 7-6 2-4-1 21-6 20-4z" fill="#792203"/>
<path transform="translate(441,573)" d="m0 0h7l6 3 1 3-4 4h-13l-2-1-1 5-2 3h-2l2-4 1-4-5-1 5-5z" fill="#6D1E03"/>
<path transform="translate(578,98)" d="m0 0 4 4 11 23 6 14 4 12 3 8 5 18 6 23v7h-1l-8-32-9-27-8-21-13-27z" fill="#792203"/>
<path transform="translate(248,168)" d="m0 0 1 4-3 19v35l1 10 2 14 3 19 3 12-1 4-5-18-4-20-2-26v-15l2-25z" fill="#E05C15"/>
<path transform="translate(319,407)" d="m0 0 3 1v2h3l1 4h3l5 5 12 11v2h2l1 6h-4l-1-5-5-1-11-10-7-9-2-3z" fill="#2F0B05"/>
<path transform="translate(520,606)" d="m0 0h5l-2 3-3 1 1 2-14 3h-9l-15-3v-3h11l18-1z" fill="#521404"/>
<path transform="translate(672,341)" d="m0 0h1v10l-3 7-2 8-3 11-2 3-3 9-4 4 1-10 5-13 7-25 2-1z" fill="#3F0E04"/>
<path transform="translate(408,717)" d="m0 0h1l-1 9-3 15-3 26v19l3 26 5 21 2 9-2-2-5-16-4-23-1-9v-29l2-23 3-16h2z" fill="#7A2203"/>
<path transform="translate(555,72)" d="m0 0 3 3 8 13 6 8v3h2l3 7 1 5h2l8 16v3l-3 1-9-17-8-17-13-23z" fill="#FE9425"/>
<path transform="translate(737,86)" d="m0 0 5 4 7 11 8 14 6 13 6 19 2 11v6l-4 2 2-3-2-10-5-16-5-14-9-19-11-16z" fill="#7B2304"/>
<path transform="translate(631,586)" d="m0 0 5 1 6 8 1 14-4 7-4-1v-6l2-2v-5l-1-5h-2l-3-5z" fill="#250805"/>
<path transform="translate(490,775)" d="m0 0h2l1 16 1 1 2 17-3 1-4-6-2-10v-15z" fill="#230705"/>
<path transform="translate(317,622)" d="m0 0 6 2 20 10 15 9 15 8 26 10 11 4v1l-7-1-21-7-21-10-20-12-19-10-5-3z" fill="#7B2304"/>
<path transform="translate(845,541)" d="m0 0m-1 1m-1 1m-1 1m-1 1m-1 1m-2 1 3 1-3 6-15 12-17 12-12 8-4-1 6-4 11-7 11-8 5-4 7-8z" fill="#F98A22"/>
<path transform="translate(612,550)" d="m0 0 6 1 8 3 10 2h9l9-2-4 3-11 3-8 1h-19l-8-1v-1h15l3-1-8-4-3-3z" fill="#822505"/>
<path transform="translate(1017,496)" d="m0 0h3l-1 9-7 11-7-1h-4v-3l4-6h3l5-5 2-4z" fill="#FB8D23"/>
<path transform="translate(400,723)" d="m0 0 5 2-1 10-4 19-2-1-3-4 1-10 2-5 1-10z" fill="#270705"/>
<path transform="translate(581,811)" d="m0 0 1 3-14 33-7 20-2 3-1-5 6-17 5-13 2-7 2-2 3-7z" fill="#5D1703"/>
<path transform="translate(734,84)" d="m0 0 5 5 10 15 10 21 8 24 3 11-1 4h-1l-3-14-12-31-8-16-3-5v-2h-2l-6-10z" fill="#E05C15"/>
<path transform="translate(473,620)" d="m0 0 8 1 10 3 8 1v2h-9l-14-2-1 8-3 1-7-3 1-6 5 1z" fill="#5F1A05"/>
<path transform="translate(676,733)" d="m0 0 6 1 20 11-2 1-23-11 2 8 1 9 1 20v15l-1 12h-1l-1-34-2-21-1-10z" fill="#7C2304"/>
<path transform="translate(913,465)" d="m0 0 1 3-10 16-10 13-6 4-2-2 10-13 6-5 8-13z" fill="#FB8824"/>
<path transform="translate(669,732)" d="m0 0 4 2 3 11 1 17-1-4h-3v24h-1l-1-29-2-15z" fill="#290804"/>
<path transform="translate(579,481)" d="m0 0 2 1-2 5-3 3-3 9-7 15-4 13h-1v-8l5-16 7-14z" fill="#531403"/>
<path transform="translate(798,195)" d="m0 0 1 3-1 2v12l3 22v24l-3 17h-1l1-17v-23l-3-24v-9z" fill="#7C2304"/>
<path transform="translate(718,62)" d="m0 0 2 1v2h-2l-1 11-4 12-5 10-8 10-7 8h-2v2l-8 7-8 8-2-1 24-24 9-13 5-9 4-12z" fill="#792203"/>
<path transform="translate(584,766)" d="m0 0h1l1 16-1 23-2 6h-1v-7l2-12h-4l-1 2 1-19v-6l4 1z" fill="#300A04"/>
<path transform="translate(431,617)" d="m0 0 3 1 5 5 8 4 1-2 4 4h-3l2 5 11 6v2l-5-1-11-6-10-9-5-6z" fill="#521303"/>
<path transform="translate(751,597)" d="m0 0h2l-2 4-7 7-14 11-10 7-3-1 6-7 5-3h2v-2l11-8 5-3 4-2z" fill="#FB8D23"/>
<path transform="translate(886,509)" d="m0 0 2 1-4 8h-2l-2 4-3 4h-2l-2 4h-2l-1 3-8 7h-2l2-4 2-3h2l2-4 4-6 5-5 7-8z" fill="#2B0804"/>
<path transform="translate(640,669)" d="m0 0h9v5l-2-2h-9l-15 3-23 3-12 1h-19v-2h12l22-2 27-4z" fill="#7E2304"/>
<path transform="translate(664,698)" d="m0 0 3 3 5 22v5l-3 1-4-11-4-19z" fill="#210705"/>
<path transform="translate(943,299)" d="m0 0h3l2 5v14h1v19l-2 5-1 9-5 1 2-2 2-10v-27l-2-11-2-1z" fill="#FE9425"/>
<path transform="translate(337,191)" d="m0 0 4 2 19 14 8 6v2l4 2 21 21 7 8-1 2-9-9-7-8-7-6-5-6-14-11-11-8v-2l-4-2-5-3z" fill="#792203"/>
<path transform="translate(529,595)" d="m0 0h13v2l7 3-3 3h-6l-3-2-5 1-7 1-1-4 5-2z" fill="#F88123"/>
<path transform="translate(418,669)" d="m0 0 3 1v11l-2 6h-6l-2-3 2-9 3-5z" fill="#290905"/>
<path transform="translate(767,587)" d="m0 0 4 2-2 4-5 3-11 10-5 1 2-4 6-6 2-5 6-4z" fill="#260805"/>
<path transform="translate(705,212)" d="m0 0 2 1-12 12h-2l-2 4h-2l-2 4h-2l-2 4-12 13-10 14-2-2 7-9 9-11 14-15 13-13z" fill="#7B2304"/>
<path transform="translate(369,107)" d="m0 0 7 6 5 4v2l4 2 16 15 10 9h-3l-11-9-8-7-10-9-8-8z" fill="#E05C15"/>
<path transform="translate(959,760)" d="m0 0 4 1 6 4v2l-18 6h-5l3-1v-2l6-5z" fill="#FA8B22"/>
<path transform="translate(583,746)" d="m0 0 2 4 3 19v21l-2 11h-1v-25l-2-22z" fill="#621904"/>
<path transform="translate(561,315)" d="m0 0h15l15 3 1 3h-2v2h-11l-6-1 1-3-6-2-7-1z" fill="#F88721"/>
<path transform="translate(727,435)" d="m0 0 2 1 6 21 15 45-3-3-7-17-4-12-6-21z" fill="#782203"/>
<path transform="translate(432,607)" d="m0 0h2l2 6h2l4 6 5 5v3l-5-1-8-6-4-8z" fill="#2E0C06"/>
<path transform="translate(606,314)" d="m0 0 5 1 9 5v4l4 1v2l-10-2-5-2v-2l-7-2-1-2z" fill="#2C0804"/>
<path transform="translate(486,641)" d="m0 0h20l13 1v1l-12 1-5 2h-17l-4-3h5z" fill="#200705"/>
<path transform="translate(295,368)" d="m0 0 5 5 15 20 10 11 9 11 2 4-7-6-10-11-4-5v-2h-2l-14-19-4-6z" fill="#772103"/>
<path transform="translate(527,308)" d="m0 0h14l12 1v1l-26 1-25 3-10 2-4-1 18-5z" fill="#6E1F02"/>
<path transform="translate(325,605)" d="m0 0 4 2 10 9 14 10 24 13 11 5-3 1-27-13-11-7-7-5v-2l-4-2-10-9z" fill="#7D2304"/>
<path transform="translate(329,100)" d="m0 0 6 1-1 2-4 2-8 16-4 12 9-1 3 4-4-2-5 1-4 1-2-3 1-5 4-9 4-10 4-8z" fill="#FE9425"/>
<path transform="translate(562,830)" d="m0 0 2 4-7 17-7 21-2 9-2 1 1-11 8-24z" fill="#5B1604"/>
<path transform="translate(133,777)" d="m0 0 8 1 26 5 8 1 24 1v2h-16l-22-2-18-4-7-2z" fill="#792203"/>
<path transform="translate(775,362)" d="m0 0 2 1-1 5-11 15-4 1v-5l9-12z" fill="#F98A22"/>
<path transform="translate(376,570)" d="m0 0 12 3 14 5v2l-11-1-21-5v-1h7z" fill="#581604"/>
<path transform="translate(628,670)" d="m0 0h6l-4 2-35 5-21 1 3-2 18-4 4 1h10z" fill="#440E04"/>
<path transform="translate(644,660)" d="m0 0h10v2l-6 3h-2v2l-11 3h-5l3-1v-3l-3-2z" fill="#2D0904"/>
<path transform="translate(642,303)" d="m0 0 3 1-1 9-5 12-3 1v-10l4-11h2z" fill="#290805"/>
<path transform="translate(646,158)" d="m0 0v3l-5 5v6l5 16 4 15 2 9v6l-2-4-4-16-6-21-2-5 1-7z" fill="#7B2203"/>
<path transform="translate(398,758)" d="m0 0 2 1v25h-1v-9l-3 1-1 9h-1v-14l1-11z" fill="#2C0804"/>
<path transform="translate(303,150)" d="m0 0 1 4-1 3v7l4 3v2l5 2 13 10 12 9-2 1-18-13-15-10-2-3 1-9z" fill="#792203"/>
<path transform="translate(341,656)" d="m0 0 6 1 30 14 13 7 3 3-5-1-12-7-15-7-14-6-5-2z" fill="#290805"/>
<path transform="translate(531,35)" d="m0 0 7 6 7 7 7 8 10 12 5 9 3 5-1 2-12-18-11-13-12-13-3-3z" fill="#7A2203"/>
<path transform="translate(941,451)" d="m0 0 4 1-9 4-10 18-11 16-7 9v-3l11-16 6-10 10-16z" fill="#792203"/>
<path transform="translate(460,872)" d="m0 0h10l7 1-2 2-15 3-8 4-2-1 5-5h-6l3-2z" fill="#561503"/>
<path transform="translate(386,553)" d="m0 0 12 6 9 7-2 1-17-7-7-4v-1h5z" fill="#5A1604"/>
<path transform="translate(711,443)" d="m0 0h7l2 2 7 26 6 16-1 4-9-25-4-14-1-6-7 1-3 1 2-4z" fill="#7A2203"/>
<path transform="translate(393,733)" d="m0 0 3 1-2 10v11l-1 8-1 25h-1l-1-6v-12l2-27 2-8-6 2 3-3z" fill="#822505"/>
<path transform="translate(493,727)" d="m0 0 3 6-1 13-2 2h-4v-9l3-11z" fill="#230705"/>
<path transform="translate(449,629)" d="m0 0 6 1 11 5-3 3 2 4h-3v-2l-6-2-6-4z" fill="#360D05"/>
<path transform="translate(809,135)" d="m0 0 5 3 2 6 4 9 5 13 2 8v5l-2-4-3-8-6-17-6-11h-2z" fill="#762103"/>
<path transform="translate(673,351)" d="m0 0 1 3-6 20-5 13h-2l2-9 2-4 5-20z" fill="#460F04"/>
<path transform="translate(801,638)" d="m0 0h12v1l-32 6-14 3-7 1 3-2 18-5z" fill="#7C2304"/>
<path transform="translate(813,330)" d="m0 0 2 1-7 8-8 14-11 17-2 1 2-5 6-9 12-22z" fill="#792203"/>
<path transform="translate(621,328)" d="m0 0 5 1 3 1v7l-4 20-1 17h2l-1 5-2 2-1-1v-15l3-21 2-12-6-3z" fill="#7A2203"/>
<path transform="translate(306,762)" d="m0 0h12l17 2 3-2-2 5h-4l-9-2h-24l-15 2 1-2z" fill="#792203"/>
<path transform="translate(60,690)" d="m0 0 3 1-16 6-19 4-14 1-1 2v-4l3-2 5 1 25-4z" fill="#772103"/>
<path transform="translate(424,669)" d="m0 0h8l19 4 19 3 10 1v1h-11l-37-6h-7l-2 1z" fill="#7C2304"/>
<path transform="translate(986,590)" d="m0 0v3l-9 11-6 6-2-1 3-7 8-8 1-2z" fill="#FA8B22"/>
<path transform="translate(438,574)" d="m0 0h7l6 2v2l-9 2-1 2-9-2 2-4z" fill="#3B0C04"/>
<path transform="translate(383,119)" d="m0 0 4 2 9 6 2 3 3 1 4 4 2 4 6 5 1 3-4-2-16-15-11-10z" fill="#782203"/>
<path transform="translate(588,518)" d="m0 0 3 1v14h-3l-4-3 1-9z" fill="#7D2304"/>
<path transform="translate(729,425)" d="m0 0 6 2-6 8h-3l-1 4-4-2 2-6 5-5z" fill="#340B04"/>
<path transform="translate(633,335)" d="m0 0 3 1-3 10-2 7h-2v-2l-3 1v-6h2l1-6 2-4z" fill="#2B0804"/>
<path transform="translate(123,311)" d="m0 0 2 4 1 25 1 11-2-4-2 1-1-23z" fill="#FE9425"/>
<path transform="translate(436,585)" d="m0 0 3 1 1 7-3 4-5 1-2-1 1-7h2l2-4z" fill="#290905"/>
<path transform="translate(490,554)" d="m0 0h11v1l-31 5-13 1h-17v-1l26-2 3-1 17-2z" fill="#822505"/>
<path transform="translate(577,749)" d="m0 0h1l3 26-1 16-2 3-1-31z" fill="#460F04"/>
<path transform="translate(633,196)" d="m0 0 2 1 1 3 1 12-4 1-3-3 1-10z" fill="#FA8A22"/>
<path transform="translate(405,824)" d="m0 0 2 4 5 14-1 4-3-5-5-5-2-5v-3l4 1z" fill="#320A04"/>
<path transform="translate(745,108)" d="m0 0 3 3 8 19v5l-5 1-2-2h-6l1-3 9 1-4-13-4-9z" fill="#FF9525"/>
<path transform="translate(635,927)" d="m0 0h8l9 2 1 2-13 1h-12l4-1 1-3z" fill="#FEFEFE"/>
<path transform="translate(283,164)" d="m0 0 4 2 11 9 16 11 6 4-3 1-12-8-12-9-10-9z" fill="#7A2203"/>
<path transform="translate(427,895)" d="m0 0h1v6l-1 1v16l-9 3h-7l-2-1v-2h8l7-1v-16l3-1z" fill="#7A2203"/>
<path transform="translate(398,738)" d="m0 0 3 1 1 7-2 8-2-1-3-4 1-10z" fill="#220705"/>
<path transform="translate(645,900)" d="m0 0h1v16l13 3 4-2-1 3-10 2-7-1-1-8z" fill="#742002"/>
<path transform="translate(651,865)" d="m0 0h2l-1 7-3 10-1 1h-5l3-9z" fill="#290805"/>
<path transform="translate(483,609)" d="m0 0 12 1 7 2 7 1-2 2h-9l-15-3z" fill="#370E06"/>
<path transform="translate(724,562)" d="m0 0h6l-2 2-16 5-7-1 2-3z" fill="#591603"/>
<path transform="translate(501,10)" d="m0 0 4 1 4 4-5-2v16l-2 13h-1z" fill="#7A2203"/>
<path transform="translate(587,906)" d="m0 0 4 2 3 5v7l-2 3h-4v-12z" fill="#3F0F04"/>
<path transform="translate(727,210)" d="m0 0 2 1-7 6-1 2-7 4-13 12-8 6 2-4 12-11 11-9z" fill="#E05C15"/>
<path transform="translate(429,927)" d="m0 0h7l8 4v1l-29-1 4-2z" fill="#FEFEFE"/>
<path transform="translate(483,907)" d="m0 0h2v8l1 7 2 1-2 1-5-3-1-2v-9z" fill="#3E0F05"/>
<path transform="translate(383,731)" d="m0 0h6l1 3-2 4-8 4-2-1 4-5-5-1 4-3z" fill="#3D0E04"/>
<path transform="translate(716,538)" d="m0 0h4v2l-19 9-1-2 3-2-5 2-4-1z" fill="#5D1803"/>
<path transform="translate(735,413)" d="m0 0 3 1-2 4-9 10-5 1 1-3h2l2-5h2l2-5z" fill="#FB8D23"/>
<path transform="translate(596,872)" d="m0 0 17 1 8 2v1l-7 1-3 1-16-4z" fill="#7A2203"/>
<path transform="translate(490,775)" d="m0 0h2v12l-4 7h-1v-15z" fill="#290805"/>
<path transform="translate(378,589)" d="m0 0 10 2 11 3-1 2-13-1-7-1v-3-1z" fill="#5B1704"/>
<path transform="translate(146,216)" d="m0 0 3 1 3 12-4-4-4 4-4 6-1-2z" fill="#ED711C"/>
<path transform="translate(822,265)" d="m0 0h2l-1 7-2 9 1 4-4 2-5 14-1-3 8-25z" fill="#762103"/>
<path transform="translate(412,842)" d="m0 0 2 3 8 18 2 6-2-1v-2l-3-1-6-12-1-4z" fill="#601903"/>
<path transform="translate(703,566)" d="m0 0 3 1 2 3-10 3h-8l5-5z" fill="#441004"/>
<path transform="translate(347,400)" d="m0 0 4 1 12 11 5 5v2l-4-2-12-11z" fill="#F68520"/>
<path transform="translate(468,636)" d="m0 0 25 3 9 1v1l-21 1-3-2-9-2z" fill="#6F2207"/>
<path transform="translate(705,543)" d="m0 0 2 1-5 3h-2l-1 3-11 5-1-5 5-3 8-2z" fill="#531403"/>
<path transform="translate(125,295)" d="m0 0 3 1 1 4h2l-1 2-2-1-1 8-1 6h-1v-9l-2 2v-9z" fill="#FE9425"/>
<path transform="translate(763,132)" d="m0 0 2 2 4 13 2 11v6l-4 2 2-3-2-10-4-13z" fill="#762103"/>
<path transform="translate(762,402)" d="m0 0v3l-20 20-8 6-2-1 12-11 8-7z" fill="#7C2304"/>
<path transform="translate(755,392)" d="m0 0 1 3-8 10-5 1 2-7h2v-2h2v-2z" fill="#F98B22"/>
<path transform="translate(348,654)" d="m0 0h5l22 11-3 1-8-4-11-4-5-1z" fill="#260705"/>
<path transform="translate(339,580)" d="m0 0 20 4v1h-5v2l5 1-3 1-16-6z" fill="#5A1604"/>
<path transform="translate(585,95)" d="m0 0 3 1 12 23-1 2-9-14-5-10z" fill="#2F0A05"/>
<path transform="translate(684,731)" d="m0 0 7 1 8 2 9 6h-3l-9-5-4-1v4l-5-2-4-2z" fill="#320A04"/>
<path transform="translate(247,570)" d="m0 0 4 1 14 10 5 5-6-2-7-4v-2l-5-2-1-2-4-2z" fill="#290805"/>
<path transform="translate(726,129)" d="m0 0 4 1 1 16-2-1-1-9-1-2-7 3-4 4-3-1 8-7z" fill="#FE9425"/>
<path transform="translate(518,923)" d="m0 0h36l3 3-9-1h-26l-9 2v-2z" fill="#FEFEFE"/>
<path transform="translate(682,882)" d="m0 0 12 3 6 2v1h-7l1 4-4-2-8-6z" fill="#5D1804"/>
<path transform="translate(769,595)" d="m0 0 2 1-2 4 2 1-4 2-1 2h-8l1-4 5-3 3 1z" fill="#6F1F02"/>
<path transform="translate(609,449)" d="m0 0 2 1-3 5-6 4-7 6-6 7-1-3 13-13z" fill="#5B1704"/>
<path transform="translate(711,221)" d="m0 0 2 1-13 12-6 5-7 8-3 2 2-4 14-15z" fill="#792203"/>
<path transform="translate(581,811)" d="m0 0 1 3-7 16h-2l-1 3-2-3 3-4 3-7z" fill="#561503"/>
<path transform="translate(319,407)" d="m0 0 3 1v2h3l1 4h3l2 4-2 1 1 4-5-5-4-5-2-3z" fill="#2F0904"/>
<path transform="translate(342,129)" d="m0 0 5 1 3 4-6-1v6l-2 7h-5l-1-2 5 1v-15z" fill="#FE9425"/>
<path transform="translate(542,642)" d="m0 0h36l3 2-13 1-3-1h-16l-7-1z" fill="#230705"/>
<path transform="translate(801,184)" d="m0 0h2l-1 7-2 4h-2l-2 4v-4h-2l2-5z" fill="#5B1704"/>
<path transform="translate(669,916)" d="m0 0 2 2 9 1 5-2h2l-1 4-1 1h-13l-3-1z" fill="#E05C15"/>
<path transform="translate(368,745)" d="m0 0 4 1-10 7-10 9-5 4 2-4 10-11z" fill="#661B03"/>
<path transform="translate(352,539)" d="m0 0 9 2 10 4-6 3-11-6z" fill="#5B1704"/>
<path transform="translate(661,375)" d="m0 0h2l-1 10-5 8-1-3 2-9z" fill="#370C04"/>
<path transform="translate(746,409)" d="m0 0 3 1-5 10-3 2-2-6 5-6z" fill="#2B0804"/>
<path transform="translate(385,645)" d="m0 0h6l26 10-3 1-14-5-12-3z" fill="#6A1C04"/>
<path transform="translate(462,642)" d="m0 0 12 1 11 2 1 1 8 1v1h-9l-16-3-7-2z" fill="#651A03"/>
<path transform="translate(148,224)" d="m0 0 3 4-1 5-1 1h-5l-1-5z" fill="#FF9525"/>
<path transform="translate(829,778)" d="m0 0h8l23 5v2h-8l-10-3-13-3z" fill="#782203"/>
<path transform="translate(339,764)" d="m0 0 2 8-1 4-5 4-1-7 4-8z" fill="#2A0804"/>
<path transform="translate(401,689)" d="m0 0 5 1-1 12-4 14h-2l1-8 3-11v-6z" fill="#651A03"/>
<path transform="translate(913,465)" d="m0 0 1 3-10 16-2-3 8-13z" fill="#F88821"/>
<path transform="translate(345,875)" d="m0 0 5 1 4 4 1 7-4-2-6-7z" fill="#350D05"/>
<path transform="translate(505,845)" d="m0 0h2l5 13 4 12-1 3-4-10-4-12-2-1z" fill="#481004"/>
<path transform="translate(689,729)" d="m0 0 5 1 16 9 9 7-2 1-13-9-15-8z" fill="#7A2203"/>
<path transform="translate(367,904)" d="m0 0h1l1 8 3 4 7 2v-7h3l-1 1-1 7-5 1-6-4-3-5v-6z" fill="#E05C15"/>
<path transform="translate(689,641)" d="m0 0 3 1-19 9-7 2 1-3z" fill="#792203"/>
<path transform="translate(827,235)" d="m0 0h2v9l-4 19-2 2 1-10z" fill="#792203"/>
<path transform="translate(689,118)" d="m0 0 2 1-17 17-8 7-2-1 9-9 8-7z" fill="#E05C15"/>
<path transform="translate(418,877)" d="m0 0 3 3 6 12v8h-2l-2-10-6-11z" fill="#7D2304"/>
<path transform="translate(326,781)" d="m0 0h2l2 8-4 5h-2l-1 2 1-10z" fill="#2F0B05"/>
<path transform="translate(408,717)" d="m0 0h1l-1 9-3 15h-2v5h-1l1-11 2-11h2z" fill="#611903"/>
<path transform="translate(569,553)" d="m0 0h10l19 4v1h-7l-11-2h-9l-7 1 1-2z" fill="#822505"/>
<path transform="translate(845,541)" d="m0 0m-1 1m-1 1m-1 1m-1 1m-1 1m-2 1 3 1-2 5h-5v2l-4 1v2l-4 3-2-1 9-9z" fill="#FC8825"/>
<path transform="translate(418,244)" d="m0 0h1l1 17v13l-2 3-4-6 1-2 1 3 2-1z" fill="#6E1F02"/>
<path transform="translate(485,674)" d="m0 0 9 1 9 3-3 2-20-1v-1l13-1-8-2z" fill="#7C2304"/>
<path transform="translate(481,622)" d="m0 0 8 1 10 2v2h-9l-13-2z" fill="#BB460E"/>
<path transform="translate(367,902)" d="m0 0v3l1 9 5 4 7 1v2h-9l-5-4-2-6 1-7z" fill="#792203"/>
<path transform="translate(737,86)" d="m0 0 5 4 7 11 4 6v2l-3-1-6-10-7-10z" fill="#782203"/>
<path transform="translate(51,726)" d="m0 0 9 4v2l4 2-7-1-8-3-1-3z" fill="#F77F22"/>
<path transform="translate(665,715)" d="m0 0h3v3l3-1 1 11-3 1-4-11z" fill="#290805"/>
<path transform="translate(672,341)" d="m0 0h1v10l-4 7h-1v-9l1-4 2-1z" fill="#360C04"/>
<path transform="translate(522,911)" d="m0 0h2v2l2 1-1 3-4 2h-4l-1-4z" fill="#6E1F02"/>
<path transform="translate(492,724)" d="m0 0h3l1 2v6l-2-1-1-3-5 18-1-4 4-16z" fill="#631A03"/>
<path transform="translate(414,695)" d="m0 0 1 4-5 18h-1v-11l3-8z" fill="#5F1803"/>
<path transform="translate(320,648)" d="m0 0 9 2 9 4v1l-8-1-9-2z" fill="#260805"/>
<path transform="translate(268,183)" d="m0 0 6 5 4 6v2h-2v-2h-2l-2 2-4-9z" fill="#691C04"/>
<path transform="translate(362,94)" d="m0 0 3 2 3 5 11 13 2 3-4-2-8-8-7-11z" fill="#822505"/>
<path transform="translate(551,858)" d="m0 0 2 4-5 19-2 1 1-11z" fill="#5E1804"/>
<path transform="translate(195,684)" d="m0 0 2 1-4 5-3 6-5-3 1-3z" fill="#FE9225"/>
<path transform="translate(756,595)" d="m0 0v3l-7 7-1 2 4-1-4 4-5 1 2-5z" fill="#3F0F04"/>
<path transform="translate(358,568)" d="m0 0 16 1 3 2v2h-9v-2l-4-1-6-1z" fill="#350B04"/>
<path transform="translate(303,150)" d="m0 0 1 4-1 3v7l4 3v2h2l1 3-5-2-5-5 1-9z" fill="#762103"/>
<path transform="translate(435,620)" d="m0 0h8l4 4v3l-5-1-7-5z" fill="#320B05"/>
<path transform="translate(602,544)" d="m0 0 7 1 3 5h-6l-6-3v-2z" fill="#822505"/>
<path transform="translate(722,242)" d="m0 0 2 1-19 19v-3l10-11z" fill="#641A03"/>
<path transform="translate(693,888)" d="m0 0h7l3 3-2 4-4-1-4-3z" fill="#230705"/>
<path transform="translate(623,575)" d="m0 0h8l7 3v2l-9-1-5-1z" fill="#240705"/>
<path transform="translate(393,733)" d="m0 0 3 1-2 10v11l-2 1v-13l2-8-6 2 3-3z" fill="#7B2203"/>
<path transform="translate(640,669)" d="m0 0h9v5l-2-2h-9l-11 2 3-3z" fill="#7B2203"/>
<path transform="translate(339,458)" d="m0 0h2l-1 8-3 7-2-3 2-11z" fill="#2A0804"/>
<path transform="translate(401,914)" d="m0 0h1v7h-17l-1-3 9 1 7-3z" fill="#E05C15"/>
<path transform="translate(576,794)" d="m0 0h2l-1 8-4 9-2 1 1-7z" fill="#5E1803"/>
<path transform="translate(308,561)" d="m0 0 9 3 1 5-4 2-3-6z" fill="#290805"/>
<path transform="translate(292,538)" d="m0 0h7l-2 4-3 4h-2l-1-7z" fill="#2B0905"/>
<path transform="translate(424,669)" d="m0 0h8l14 3v1h-8l-13-1-2 1z" fill="#7A2203"/>
<path transform="translate(664,664)" d="m0 0 4 1-10 3 3 7v4l6-1-3 3-4-1-3-8v-6z" fill="#7B2304"/>
<path transform="translate(864,656)" d="m0 0 9 3-2 4-4 1-2-4-2-1z" fill="#FE9325"/>
<path transform="translate(1017,496)" d="m0 0h3l-1 7-5 2v-2l-2-1 3-5z" fill="#FE9425"/>
<path transform="translate(480,320)" d="m0 0 3 1h19v1l-17 2h-7l-1-3z" fill="#FF9525"/>
<path transform="translate(364,129)" d="m0 0 9 1-6 7-3 1z" fill="#FE9325"/>
<path transform="translate(460,872)" d="m0 0h10l7 1-2 2-12 1 2-2h-9z" fill="#7C2304"/>
<path transform="translate(651,670)" d="m0 0 7 2v5l-5 1-2-3z" fill="#290804"/>
<path transform="translate(900,485)" d="m0 0 1 3-8 10-4 1 4-6z" fill="#F88921"/>
<path transform="translate(671,133)" d="m0 0 2 1-12 12-8 6 2-4z" fill="#7A2203"/>
<path transform="translate(589,123)" d="m0 0 3 4 6 16-1 3-5-11-3-8z" fill="#E05C15"/>
<path transform="translate(587,622)" d="m0 0 6 1-1 2-5 1h-12l4-2z" fill="#E15F18"/>
<path transform="translate(311,615)" d="m0 0h5l10 7-3 1-12-6z" fill="#290805"/>
<path transform="translate(552,610)" d="m0 0h8l10 3v1h-14l-1-3z" fill="#290805"/>
<path transform="translate(613,580)" d="m0 0h9l-1 3-6 3h-3z" fill="#F98822"/>
<path transform="translate(441,573)" d="m0 0h7l6 3 1 3-2 1h-7v-2h5v-2l-10-2z" fill="#581503"/>
<path transform="translate(906,499)" d="m0 0v3l-8 10-7 8v-3l11-13z" fill="#7D2304"/>
<path transform="translate(654,243)" d="m0 0h1l1 24 3-1-1 3-5-1z" fill="#6E1F02"/>
<path transform="translate(908,468)" d="m0 0 1 3-7 11-3 1 2-5 6-9z" fill="#FC8725"/>
<path transform="translate(348,752)" d="m0 0h3l-1 4-5 5-3-1 4-6z" fill="#2F0904"/>
<path transform="translate(664,698)" d="m0 0 3 3 1 6-3-1-2 3-2-10z" fill="#290805"/>
<path transform="translate(778,571)" d="m0 0 5 1 1 6-5 2-1-3 1-3z" fill="#250705"/>
<path transform="translate(304,352)" d="m0 0 4 4 7 10h-3l-6-7-2-3z" fill="#F78621"/>
<path transform="translate(665,830)" d="m0 0h1v8l-5 3v-8h3z" fill="#320A04"/>
<path transform="translate(364,587)" d="m0 0 14 2 2 1-1 2-3 1v-2h-7l-7-2z" fill="#280805"/>
<path transform="translate(884,508)" d="m0 0v3l-10 12-5 3 2-4 9-9z" fill="#681B04"/>
<path transform="translate(568,123)" d="m0 0 6 1 4 6-4-2-2-2-4-1-3 9-2 2 1-6z" fill="#FF9525"/>
<path transform="translate(529,605)" d="m0 0h3l-1 3-7 3h-6l2-2 5-3z" fill="#370F06"/>
<path transform="translate(298,592)" d="m0 0 5 4 3 6v2l-5-2-5-3 2-1 4 2-4-6z" fill="#772103"/>
<path transform="translate(630,574)" d="m0 0 6 1 6 4-1 3-3 1-2 2 1-5 1-2-7-2z" fill="#611903"/>
<path transform="translate(804,576)" d="m0 0h2l-1 3-11 7-4-1 6-4z" fill="#F88821"/>
<path transform="translate(713,89)" d="m0 0 4 2 1 4-1 3-5-3-1 2 1-6z" fill="#FE9325"/>
<path transform="translate(453,911)" d="m0 0h2v12h-3v-11z" fill="#2B0905"/>
<path transform="translate(337,762)" d="m0 0v3l-2 3-17-4v-1h8l9 1z" fill="#7B2304"/>
<path transform="translate(392,735)" d="m0 0h2v5l-4 3h-2l-1-4 3-3z" fill="#F68220"/>
<path transform="translate(432,607)" d="m0 0h2l2 6-2 5-3-3-1-3z" fill="#280705"/>
<path transform="translate(775,537)" d="m0 0 4 2v8l-2 1-3-9-2-1z" fill="#220705"/>
<path transform="translate(316,370)" d="m0 0 5 3 8 9-2 1-7-6-4-5z" fill="#F98A22"/>
<path transform="translate(530,920)" d="m0 0 11 1v1l-10 1h-14v-1z" fill="#220705"/>
<path transform="translate(605,874)" d="m0 0h13l3 2-7 1-3 1-3-1v-2z" fill="#581604"/>
<path transform="translate(714,745)" d="m0 0 7 3 7 8 2 4-7-6-9-7z" fill="#481004"/>
<path transform="translate(363,101)" d="m0 0 6 4 3 7 1 4-5-5-5-8z" fill="#F88522"/>
<path transform="translate(341,656)" d="m0 0 6 1 9 4v2l-5-1-9-4z" fill="#260705"/>
<path transform="translate(324,511)" d="m0 0h3l-1 4-5 5-2-1 2-4z" fill="#290805"/>
<path transform="translate(710,93)" d="m0 0h1v6l-4 5h-2l-2 1 2-4z" fill="#EE751C"/>
<path transform="translate(620,912)" d="m0 0 2 2 1 7h5l-2 4-4-1-2-8z" fill="#782203"/>
<path transform="translate(333,842)" d="m0 0 3 1 6 13v2h-2l-7-14z" fill="#772103"/>
<path transform="translate(404,845)" d="m0 0 2 3 3 7v3l-3-1-3-9z" fill="#792203"/>
<path transform="translate(315,650)" d="m0 0 18 4 1 3-11-3-8-3z" fill="#6A1C04"/>
<path transform="translate(961,616)" d="m0 0h2v2l-11 9-4 1 5-5z" fill="#FA8C23"/>
<path transform="translate(309,520)" d="m0 0h2l-1 5-5 3-1-5z" fill="#230705"/>
<path transform="translate(777,384)" d="m0 0v3l-9 11-4 3 2-4z" fill="#7B2304"/>
<path transform="translate(448,359)" d="m0 0h1v24l-3-3 1-4z" fill="#7D2304"/>
<path transform="translate(383,119)" d="m0 0 4 2 9 6 1 3-4-1-10-9z" fill="#7B2203"/>
<path transform="translate(403,909)" d="m0 0h2l4 7v2l-6-2z" fill="#5A1604"/>
<path transform="translate(648,866)" d="m0 0h2l-2 7-6 9-1-2z" fill="#5F1804"/>
<path transform="translate(639,609)" d="m0 0 3 1-3 6-4-1v-5z" fill="#2B0804"/>
<path transform="translate(1e3 521)" d="m0 0h2l-2 6-4 3h-2l2-6h2v-2z" fill="#FE9425"/>
<path transform="translate(554,63)" d="m0 0 5 4 6 9-1 2-10-12z" fill="#E05C15"/>
<path transform="translate(469,633)" d="m0 0 5 1 5 4-13-2-1-2z" fill="#FFC093"/>
<path transform="translate(495,611)" d="m0 0 14 2-2 2h-9l-3-3z" fill="#401106"/>
<path transform="translate(767,587)" d="m0 0 4 2-2 4-4-1-2-3z" fill="#290805"/>
<path transform="translate(705,543)" d="m0 0 2 1-5 3h-2l-1 3h-5v-3z" fill="#2D0905"/>
<path transform="translate(623,366)" d="m0 0 1 3h2v-2h2l-1 7h-2l-1 2-1-2z" fill="#501304"/>
<path transform="translate(145,334)" d="m0 0 2 1-13 13v-3l4-5z" fill="#FE9125"/>
<path transform="translate(557,846)" d="m0 0 1 2-5 12-1-4 3-9z" fill="#571503"/>
<path transform="translate(580,792)" d="m0 0h4v6l-4 2z" fill="#200706"/>
<path transform="translate(893,255)" d="m0 0 3 2v9h-4v-4h2z" fill="#FB8C23"/>
<path transform="translate(793,195)" d="m0 0h3v5l-5 3h-2l2-4z" fill="#240705"/>
<path transform="translate(273,193)" d="m0 0 3 1v2h2l1 6-4-2v-2h-2z" fill="#300A05"/>
<path transform="translate(796,155)" d="m0 0v3l-11 11-2-1 8-8z" fill="#772103"/>
<path transform="translate(643,144)" d="m0 0 2 1-9 9-6 2 5-5z" fill="#B4826E"/>
<path transform="translate(353,61)" d="m0 0 2 1 2 13v5l-2-4-2-10-2-1z" fill="#792203"/>
<path transform="translate(507,15)" d="m0 0 4 2 10 9-3 1-11-11z" fill="#E05C15"/>
<path transform="translate(671,780)" d="m0 0h1v14l-2 6h-1v-8h2z" fill="#551403"/>
<path transform="translate(761,552)" d="m0 0h3l-1 4-3 2h-3l-1-3 3-2 2 1z" fill="#FC8F23"/>
<path transform="translate(622,365)" d="m0 0h1l1 9h2l-1 5-2 2-1-1z" fill="#7F2404"/>
<path transform="translate(805,341)" d="m0 0 1 2-8 13-1-3 6-10z" fill="#7C2304"/>
<path transform="translate(380,234)" d="m0 0 5 2v2l4 2v2h-4l-5-7z" fill="#290805"/>
<path transform="translate(175,230)" d="m0 0h4l-1 6-4 1v-6z" fill="#6E1F02"/>
<path transform="translate(147,212)" d="m0 0h2l4 14-1 4-4-13-2-2z" fill="#792203"/>
<path transform="translate(563,855)" d="m0 0 1 3-4 12-2-2 1-6 3-5z" fill="#641A03"/>
<path transform="translate(565,848)" d="m0 0h1l-1 7h-2l-2 6-1-3 4-9z" fill="#511303"/>
<path transform="translate(412,842)" d="m0 0 2 3 2 5v5l-3-2-1-4z" fill="#5C1703"/>
<path transform="translate(193,731)" d="m0 0 2 2h-2v7l-5-1 2-5z" fill="#FE9025"/>
<path transform="translate(337,646)" d="m0 0 6 1 9 4-4 1-5-1-1-2-5-2z" fill="#6B1C04"/>
<path transform="translate(476,639)" d="m0 0 10 3-3 3-9-1 3-2z" fill="#290805"/>
<path transform="translate(294,589)" d="m0 0 5 5 3 4v2l-4-2-3-5z" fill="#E05C15"/>
<path transform="translate(443,574)" d="m0 0 8 2v2h-7l-4-3z" fill="#220705"/>
<path transform="translate(773,560)" d="m0 0v3l-2 5h9v1h-11v-5z" fill="#792203"/>
<path transform="translate(836,552)" d="m0 0h2l-2 4-7 5v-3l3-3h2v-2z" fill="#F78621"/>
<path transform="translate(763,521)" d="m0 0 5 1v5h-4z" fill="#230705"/>
<path transform="translate(667,911)" d="m0 0h1l-1 8h-2v3h-2l2-10z" fill="#2B0905"/>
<path transform="translate(432,581)" d="m0 0 3 1-1 4-4 2v-6z" fill="#F48020"/>
<path transform="translate(324,540)" d="m0 0 5 2v5h-4z" fill="#2A0804"/>
<path transform="translate(636,418)" d="m0 0h1v5l-5 6-3-1 4-6 2-1z" fill="#F88821"/>
<path transform="translate(676,326)" d="m0 0h1v9l-4 4v-6h2z" fill="#2C0804"/>
<path transform="translate(924,213)" d="m0 0 3 4-1 2-3-2-2 9-1-4 3-8z" fill="#7A2203"/>
</svg>
